<svg width="343" height="24" viewBox="0 0 343 24" fill="none" xmlns="http://www.w3.org/2000/svg">
    <g opacity=".4">
        <path d="M17.13 13.556h-2.803l2.802-3.413v3.413zm2.29 0V7l-5.578 6.793H9.56c-.184 0-.332-.161-.332-.364 0-.138.069-.254.169-.317.005 0 .005-.006.01-.006.432-.243.848-.37 1.085-.445l.074-.023c.143-.046.321-.087.506-.133.063-.017.132-.035.2-.046 1.133-.283 2.665-.768 2.665-2.75 0-.439-.1-.884-.332-1.282-.368-.636-1.064-1.15-2.201-1.3a5.586 5.586 0 0 0-.722-.046c-1.764 0-2.955 1.017-2.997 2.542v.08c0 .844.622 1.526 1.39 1.526.77 0 1.391-.688 1.391-1.526 0-.843-.621-1.525-1.39-1.525-.043 0-.085 0-.127.006h-.005a1.337 1.337 0 0 0-.753.341c.158-.271.374-.503.637-.693.005 0 .005-.006.01-.006.475-.335 1.107-.52 1.85-.52.078 0 .157 0 .231.006h.048c.163.023.29.173.29.358V11.9a.423.423 0 0 1-.29.41c-.011 0-.016.006-.027.006-.158.034-.3.075-.426.115l-.069.023c-.342.104-1.053.324-1.68.85-.221.184-.411.386-.574.612-.411.572-.617 1.27-.617 2.085h4.472l1.807-2.2h3.282V16h2.29v-2.2H20v-.238h-.58v-.005zm-18.261.278 1.411-3.31 1.407 3.31H1.159zm1.88-4.974c-.284.653-.874.722-.874.722l.284.664v.006L0 15.994h.237l.822-1.923h3.018l.816 1.923h2.529L3.719 7.271l-.68 1.59z" fill="#fff"/>
        <path fill-rule="evenodd" clip-rule="evenodd" d="M49.377 7.55c.953.81 2.19 2.185 2.035 3.769-.185 1.253-1.466 2.195-2.551 2.494-1.054.322-2.375.29-3.45.033l-.013.038c-.068.195-.146.417-.358.497a.474.474 0 0 1-.444-.074c-.142-.137-.17-.331-.198-.522-.035-.24-.07-.474-.33-.581-.908-.396-1.89-1.178-2.355-2.14-.061-.193.01-.386.124-.536.713-.59 1.612-.824 2.51-1.007.029.012.035-.007.042-.03.006-.016.012-.036.03-.044l.023-.302c.04-.543.08-1.084.245-1.572.045-.081.155-.107.227-.053.352.278.383.708.414 1.14.02.266.04.533.134.766h.008c1.082.055 2.163.11 3.018.739.289.247.36.717.268.985-.091.268-.392.46-.672.482h-.057c-.192.002-.478.005-.46-.128.009-.057.103-.127.207-.204.166-.123.353-.262.238-.386-.269-.288-1.614-.46-2.45-.567h-.006c-.103-.022-.197.01-.197.128l-.013.409c-.023.698-.048 1.433.064 2.086.01.054.072.117.124.128 1.477.247 3.036.107 4.193-.77.538-.45.713-1.082.62-1.778-.466-1.938-2.417-3.106-4.019-3.855a10.944 10.944 0 0 0-5.133-.975c-.294.022-.76.128-.764.236-.002.045.089.066.191.089.144.032.31.07.274.189-.064.205-.605.084-.765.032-.16-.05-.145-.288-.103-.439.403-.738 1.526-.798 2.035-.823 2.81-.076 5.527 1.033 7.314 2.547zm-5.061 2.87c-.713.012-1.467.086-2.129.344-.134.054-.299.203-.195.384.267.376.652.683 1.011.9.36.217.837.493 1.27.557.104-.697.104-1.38.093-2.099-.019-.01-.02-.024-.02-.04-.002-.016-.003-.034-.03-.045zm9.77-4.11c.197.01.372.085.517.214.196.192.248.513.156.771-.363.771-1.222 1.286-1.808 1.457-.352.085-.795.085-1.115-.044a.745.745 0 0 0-.146.14c-.1.112-.202.226-.33.138-.155-.125-.147-.29-.139-.455.007-.127.013-.254-.056-.361a.165.165 0 0 0-.06-.049c-.035-.02-.072-.04-.095-.09-.217-.492.052-.963.351-1.338.499-.575 1.931-1.218 2.726-.383zm-1.662.385c-.278.054-.594.18-.765.384-.17.207-.278.407-.175.62.16-.121.283-.265.405-.407.155-.18.31-.36.535-.492 0-.014.007-.027.014-.04.014-.023.026-.044-.014-.065zm1.684.107c-.713-.064-1.25.491-1.756 1.028-.01.026-.033.053-.058.08-.056.064-.115.13-.014.198.683.063 1.332-.14 1.83-.61.144-.14.248-.32.174-.513a.375.375 0 0 0-.176-.183zm6.175 3.19c.33.835.61 2.152 0 2.956-.165.192-.455.37-.64.225-.509-.423-.799-.982-1.089-1.541-.1-.192-.198-.383-.306-.569-.041-.022-.055.01-.069.043a.135.135 0 0 1-.024.042c-.057.27-.054.569-.052.869.005.521.01 1.044-.3 1.412a.37.37 0 0 1-.423-.258c-.173-.551-.09-1.12-.007-1.68.03-.213.062-.424.079-.633.036-.097.068-.198.099-.3.093-.301.188-.607.427-.824.399.165.638.56.864.934.066.11.132.219.2.319.08.12.153.247.226.374.129.221.257.442.415.633.17-.075.142-.271.118-.438-.007-.047-.013-.091-.015-.13-.073-.619-.227-1.195-.385-1.781l-.06-.222a1.597 1.597 0 0 0-.014-.122c-.023-.163-.051-.361.087-.445.414.192.615.61.8.994l.07.143zm-3.346.128c.103-.023.228-.223.228-.385-.029-.086-.106-.12-.18-.153l-.027-.011c-1.218-.236-2.674-.31-3.635.568-.186.214-.186.566-.103.823.041.121.226.225.37.258.222.022.445.038.668.054.536.038 1.068.075 1.564.203.036.015.075.029.116.043.227.082.498.18.525.47-.01.097-.124.193-.217.226l-.008.002c-.803.235-1.71.5-2.523.127-.11-.056-.042-.236.05-.3.317-.159.605-.033.897.094.32.139.643.28 1.015.057a.478.478 0 0 1 .11-.05c.103-.037.209-.075.179-.228-.64-.397-1.56-.568-2.303-.258-.186.104-.298.318-.3.59.02.343.303.62.599.793.774.46 1.941.48 2.706-.022.31-.225.432-.624.413-.953-.03-.418-.178-.92-.588-1.028-.495-.13-1.014-.19-1.531-.25-.294-.034-.588-.068-.876-.115l-.04-.015c-.073-.026-.161-.057-.135-.155.574-.199 1.215-.237 1.855-.276.396-.023.792-.047 1.171-.109zm-4.286.023c.092 1.029.145 1.981.124 3.062-.017.11-.115.153-.207.192l-.072.033c-.164.033-.378-.004-.444-.096-.18-.3-.177-.68-.173-1.058.001-.12.003-.239-.002-.355.005-.126.01-.254.013-.383.02-.647.042-1.318.214-1.908.04-.103.156-.193.249-.13.245.128.287.386.298.643zm11.476.127c.101-.057.049-.19 0-.277-.104-.16-.27-.413-.391-.44-.62-.074-1.302 0-1.911.13-.09.014-.182.019-.274.024-.182.01-.363.019-.52.104-.034.295.167.392.365.487.104.05.207.1.275.177-.066.075-.097.183-.127.289-.052.18-.103.354-.318.354-.124.032-.206.16-.175.31.133.232.029.45-.074.665-.05.103-.099.205-.122.309-.114.45.036.979.371 1.136.895.387 1.735-.162 2.386-.697.063-.151-.009-.284-.076-.409a3.398 3.398 0 0 1-.028-.052c-.31-.069-.645-.005-.964.056-.076.014-.15.028-.224.04a1.39 1.39 0 0 0-.179.042c-.138.038-.266.074-.39-.009.028-.08.045-.164.063-.249.041-.201.083-.402.258-.522.11-.06.37-.053.648-.044.213.006.437.013.612-.01.147-.008.208-.365.154-.461-.156-.23-.454-.202-.733-.176-.11.01-.217.02-.31.015-.044.004-.083-.023-.122-.051a.74.74 0 0 0-.034-.024c-.052-.192.062-.406.207-.535.183-.022.376-.025.57-.028.377-.006.755-.012 1.063-.153zm1.103.379c.21-.372.42-.744.435-1.202-.031-.044-.072-.053-.124-.058a4.507 4.507 0 0 0-.992 1.243c-.32.675-.567 1.553-.175 2.28-.057.157-.12.325-.182.487-.117.307-.226.594-.263.745-.006.024-.019.067-.037.124-.148.48-.618 1.993.13 2.606.03.01.065.031.102.053.112.065.239.139.3-.031.155-1.123.434-2.204.837-3.233.971.107 1.823-.524 2.314-1.156.476-.642.558-1.638.217-2.344-.096-.173-.33-.406-.588-.384-.762.249-1.33.955-1.86 1.614-.153.19-.303.377-.454.548-.033.017-.052-.005-.075-.032-.005-.007-.011-.014-.018-.02 0-.474.216-.856.433-1.24zm1.931.046c.047-.053.095-.105.167-.093.016.034.039.066.061.098.036.05.071.101.084.16.031.59-.27 1.103-.744 1.413-.074.031-.147.07-.22.107-.205.106-.412.214-.648.182.237-.661.71-1.216 1.182-1.77l.006-.008c.044-.013.078-.051.112-.09zM97.208 9c-1.29 0-2.338 1.11-2.338 2.476 0 1.39 1.037 2.519 2.31 2.519 1.332 0 2.375-1.104 2.375-2.514 0-1.367-1.053-2.481-2.347-2.481zm-.011 4.017c-.78 0-1.393-.668-1.393-1.52 0-.848.62-1.513 1.413-1.513.785 0 1.398.66 1.398 1.502 0 .873-.609 1.531-1.418 1.531zm10.011-2.012h.001c.133.045.273.093.414.15.511.202 1.223.527 1.223 1.437 0 .834-.749 1.409-1.832 1.408-.524 0-1.031-.12-1.587-.372v-1.005c.398.221 1.016.476 1.526.476.545 0 .84-.197.84-.46 0-.357-.384-.49-.861-.655-.125-.044-.258-.09-.391-.142-.51-.203-1.243-.524-1.243-1.434 0-.834.725-1.408 1.796-1.408.53 0 1.043.14 1.58.376v1.001c-.398-.222-.992-.475-1.517-.475-.546 0-.804.196-.804.459 0 .353.384.483.855.644zm4.558 1.172h1.283c-.059.357-.39.882-1.216.882-.811 0-1.462-.682-1.462-1.553 0-.889.634-1.56 1.477-1.56.849 0 1.242.712 1.258.742l.757-.496C113.419 9.435 112.685 9 111.848 9c-1.325 0-2.403 1.118-2.403 2.494 0 1.404 1.042 2.505 2.371 2.505 1.233 0 2.199-.938 2.199-2.206v-.546h-2.249v.93zm-8.351-.133V9.153h.962v4.695h-.829l-2.147-2.984v2.984h-.962V9.153h.899l2.077 2.891zm15.057-1.938v-.953h3.672v.953h-1.348v3.742h-.976v-3.742h-1.348zM89 9.155h.975v3.756h2.203v.938H89V9.155zm36.913 3.774h-2.072v-.986h1.898a6.35 6.35 0 0 1-.021-.5c0-.142.006-.28.017-.418h-1.894v-.953h2.049a5.56 5.56 0 0 1 .325-.918v-.001h-3.342v4.695h3.373a5.55 5.55 0 0 1-.333-.919zM92.976 9.153h.976v4.695h-.976V9.153zm23.122 0-1.886 4.695h.994l.353-.924h1.978l.353.924h1.02l-1.886-4.694-.926-.001zm-.208 2.904.658-1.697.662 1.697h-1.32zm10.89-2.747a.218.218 0 0 0-.092-.014h-.116v.355h.058v-.14h.047c.031.001.054.004.066.012.02.013.031.04.031.08v.03l.001.01.001.005.001.003h.056l-.002-.004c-.003-.003-.003-.008-.004-.015l-.001-.003v-.054a.1.1 0 0 0-.018-.054.084.084 0 0 0-.057-.036.106.106 0 0 0 .048-.017c.023-.014.033-.037.033-.069 0-.046-.017-.074-.052-.09zm-.099.028c.033 0 .056.006.07.014.016.01.023.027.023.051 0 .029-.012.047-.035.056a.14.14 0 0 1-.055.009h-.054v-.13h.051zm.013.46a.285.285 0 0 0 .217-.095.321.321 0 0 0 .089-.23.32.32 0 0 0-.089-.226.285.285 0 0 0-.217-.094.286.286 0 0 0-.215.094.322.322 0 0 0-.088.227c0 .09.029.167.088.23a.28.28 0 0 0 .215.095zm-.261-.324c0-.076.025-.142.076-.195a.24.24 0 0 1 .185-.083.24.24 0 0 1 .187.083c.051.054.075.12.075.195a.279.279 0 0 1-.075.198.243.243 0 0 1-.187.082.24.24 0 0 1-.185-.082.28.28 0 0 1-.076-.198z" fill="#fff"/>
        <g clip-path="url(#a)">
            <path fill-rule="evenodd" clip-rule="evenodd" d="M160.789 13.976h-1.495c-.054 0-.097-.041-.097-.09 0-.05.043-.091.097-.091h1.495c.496 0 .9-.377.9-.84V10.02c0-.463-.404-.84-.9-.84h-1.877c-.496 0-.899.377-.899.84v2.934c0 .463.403.84.899.84h.105c.053 0 .097.04.097.09 0 .05-.044.09-.097.09h-.105c-.603 0-1.093-.457-1.093-1.02V10.02c0-.563.49-1.021 1.093-1.021h1.877c.603 0 1.094.458 1.094 1.02v2.935c0 .563-.491 1.02-1.094 1.02zm-.055-.519h-.863c-.053 0-.097-.04-.097-.09 0-.05.044-.09.097-.09h.863c.221 0 .401-.169.401-.375v-2.828c0-.206-.18-.374-.401-.374h-1.764c-.222 0-.402.168-.402.374v2.828c0 .206.18.374.402.374h.625c.053 0 .096.04.096.09 0 .05-.043.091-.096.091h-.625c-.328 0-.595-.25-.595-.555v-2.828c0-.306.267-.555.595-.555h1.764c.327 0 .594.249.594.555v2.828c0 .306-.267.555-.594.555zm-.234-.519h-1.272a.303.303 0 0 1-.237-.109.082.082 0 0 1-.019-.067.085.085 0 0 1 .037-.06.103.103 0 0 1 .137.018.103.103 0 0 0 .082.038h1.272c.057 0 .103-.043.103-.096v-2.348c0-.053-.046-.096-.103-.096h-1.272c-.057 0-.103.043-.103.096v2.19c0 .05-.044.09-.098.09-.053 0-.097-.04-.097-.09v-2.19c0-.152.133-.276.298-.276h1.272c.164 0 .298.123.298.276v2.348c0 .152-.134.276-.298.276zM152.171 14h-.849a.307.307 0 0 1-.208-.08l-.002-.002c-.034-.033-.479-.673-1.4-2.013l-.101-.147c-.088-.123-.072-.285-.072-.292a.09.09 0 0 1 .035-.062.102.102 0 0 1 .071-.02c.054.005.093.05.088.099 0 0-.009.106.039.174l.072.104.036.052c.873 1.273 1.335 1.94 1.373 1.98a.104.104 0 0 0 .069.026h.849c.056 0 .102-.044.102-.096V9.29c0-.053-.046-.096-.102-.096h-.849c-.057 0-.103.043-.103.096v1.707c0 .236 0 .266.056.365.088.154.031.291-.071.346-.099.054-.256.037-.365-.126-.231-.345-1.522-2.251-1.626-2.364a.108.108 0 0 0-.068-.024h-.848c-.057 0-.103.043-.103.096v4.432c0 .052.046.096.103.096h.848c.057 0 .103-.044.103-.096v-2.59c0-.05.043-.09.097-.09.053 0 .097.04.097.09v2.59c0 .153-.133.277-.297.277h-.848c-.164 0-.297-.124-.297-.277V9.29c0-.153.133-.278.297-.278h.848c.076 0 .148.027.203.075l.003.003c.109.105 1.637 2.373 1.653 2.396.043.065.086.074.103.065.018-.01.029-.048-.003-.104-.079-.139-.079-.211-.079-.45V9.29c0-.153.133-.278.297-.278h.849c.163 0 .296.125.296.278v4.432c0 .153-.133.277-.296.277zm-3.443-.614c-.054 0-.097-.04-.097-.09V9.932c0-.156.078-.275.204-.309.133-.036.274.033.376.183l2.21 3.274c.051.076.113.118.157.106.039-.01.065-.065.065-.136V9.61c0-.05.043-.091.097-.091.053 0 .097.04.097.09v3.441c0 .157-.079.275-.205.31-.133.036-.273-.033-.375-.184l-2.21-3.273c-.052-.076-.113-.118-.158-.106-.039.01-.064.065-.064.135v3.364c0 .05-.044.09-.097.09zm17.975.613h-.848a.308.308 0 0 1-.209-.08l-.002-.001c-.073-.073-1.02-1.46-1.579-2.28a.083.083 0 0 1-.012-.068.087.087 0 0 1 .042-.056.101.101 0 0 1 .134.027c.673.989 1.482 2.168 1.556 2.252a.107.107 0 0 0 .07.025h.848c.057 0 .103-.043.103-.096V9.29c0-.053-.046-.096-.103-.096h-.848c-.057 0-.103.043-.103.096v1.415c0 .354-.004.451-.112.559-.075.075-.101.144-.099.169.135.046.164.137.149.2a.166.166 0 0 1-.178.12c-.034-.004-.143-.028-.154-.191-.321-.478-1.515-2.238-1.613-2.344a.103.103 0 0 0-.067-.024h-.849c-.056 0-.103.043-.103.096v4.432c0 .053.047.096.103.096h.849c.056 0 .102-.043.102-.096v-2.436c0-.057-.027-.1-.044-.12a.087.087 0 0 1 .019-.128.101.101 0 0 1 .136.018c.031.039.084.12.084.23v2.436c0 .153-.134.277-.297.277h-.849c-.164 0-.297-.124-.297-.277V9.29c0-.153.133-.277.297-.277h.849a.31.31 0 0 1 .203.075l.003.003c.086.083 1.063 1.523 1.51 2.184a.612.612 0 0 1 .104-.135c.05-.05.06-.09.06-.435V9.29c0-.153.133-.277.297-.277h.848c.164 0 .297.124.297.277v4.432c0 .153-.133.277-.297.277zm-3.461-.613c-.053 0-.097-.04-.097-.09v-3.37c0-.157.078-.275.205-.31.133-.036.273.033.375.184l1.289 1.913.921 1.366c.051.077.113.118.158.106.038-.01.064-.065.064-.135V9.68c0-.05.044-.09.097-.09.053 0 .097.04.097.09v3.37c0 .157-.078.275-.205.31-.133.036-.273-.033-.375-.184l-1.346-1.998-.864-1.281c-.051-.077-.113-.118-.158-.106-.038.01-.064.065-.064.135v3.37c0 .05-.044.09-.097.09zm-9.048.59h2.673c.163 0 .296-.125.296-.277v-.636c0-.152-.133-.277-.296-.277h-2.271l-.003.025-.001-.026a.072.072 0 0 1-.009-.002h-.004a.158.158 0 0 1-.009-.004l-.003-.001a.105.105 0 0 1-.037-.027.1.1 0 0 0-.136-.013.086.086 0 0 0-.014.128.27.27 0 0 0 .07.058l.003.002a.355.355 0 0 0 .034.016l.007.003.028.01.011.003a.278.278 0 0 0 .028.005h.002l.008.002a.324.324 0 0 0 .039.002h2.257c.056 0 .102.043.102.096v.636c0 .053-.046.096-.102.096h-2.673c-.497 0-.901-.377-.901-.84V10.02c0-.463.404-.84.901-.84h2.673c.056 0 .102.043.102.095v.636c0 .053-.046.096-.102.096h-2.257c-.164 0-.297.124-.297.276v.513c0 .153.133.277.297.277h1.5c.057 0 .103.043.103.096v.636c0 .052-.046.095-.103.095h-1.5c-.164 0-.297.124-.297.277v.344c0 .05.044.09.097.09.053 0 .097-.04.097-.09v-.344c0-.053.046-.096.103-.096h1.5c.164 0 .297-.124.297-.276v-.636c0-.153-.133-.277-.297-.277h-1.5c-.057 0-.103-.043-.103-.096v-.513c0-.052.046-.095.103-.095h2.257c.163 0 .296-.124.296-.277v-.636c0-.152-.133-.276-.296-.276h-2.673c-.604 0-1.095.458-1.095 1.02v2.935c0 .563.491 1.02 1.095 1.02zm2.317-.543h-2.261c-.329 0-.596-.249-.596-.555v-.937c0-.188.103-.363.27-.465a.548.548 0 0 1-.27-.465v-.937c0-.306.267-.555.596-.555h2.261c.053 0 .097.04.097.09 0 .05-.044.09-.097.09h-2.261c-.222 0-.402.169-.402.375v.937c0 .207.18.375.402.375h1.488c.054 0 .097.04.097.09 0 .05-.043.09-.097.09h-1.488c-.222 0-.402.168-.402.375v.937c0 .207.18.375.402.375h2.261c.053 0 .097.04.097.09 0 .05-.044.09-.097.09z" fill="#fff"/>
        </g>
        <path d="M200.54 15.779h.112v.417h-.077v-.329l-.123.329h-.056l-.123-.329v.329h-.077v-.417h.113l.108.297.123-.297zm-.549.417v-.35h.123v-.067h-.333v.067h.128v.35h.082zm-10.536.532h11.044v-.084h-11.044v.084zm.702.531.251.605h-.133l-.051-.135h-.251l-.056.135h-.134l.251-.605h.123zm.016.355-.077-.193-.077.193h.154zm.866.073-.154-.422h-.143l.235.605h.113l.236-.605h-.139l-.148.422zm.379.177h.128v-.459h-.128v.46zm0-.51h.133v-.115h-.133v.114zm.61.099c.036.036.051.083.051.146v.265h-.123v-.052c-.031.037-.072.058-.138.058-.087 0-.154-.053-.154-.141 0-.1.077-.146.184-.146.047 0 .077.005.113.02v-.005c0-.052-.031-.083-.097-.083a.307.307 0 0 0-.123.026l-.031-.099a.412.412 0 0 1 .174-.037.18.18 0 0 1 .144.047zm-.072.224a.19.19 0 0 0-.082-.016c-.056 0-.087.02-.087.063 0 .036.031.057.072.057.061 0 .102-.031.102-.078v-.026h-.005zm.466.083c-.071 0-.112-.057-.112-.125s.046-.125.107-.125c.046 0 .072.02.103.052l.077-.084a.22.22 0 0 0-.18-.078.234.234 0 0 0-.235.24c0 .13.097.235.235.235a.24.24 0 0 0 .185-.084l-.077-.078c-.031.031-.056.047-.103.047zm.738-.125a.24.24 0 0 1-.246.24.234.234 0 0 1-.241-.235c0-.13.103-.24.246-.24.139-.005.241.1.241.235zm-.128 0c0-.068-.046-.125-.118-.125-.071 0-.118.057-.118.125s.047.125.118.125c.077 0 .118-.057.118-.125zm.774-.24a.19.19 0 0 0-.149.073c-.025-.047-.066-.073-.128-.073-.066 0-.102.037-.133.073V17.4h-.128v.46h.128v-.256c0-.063.031-.094.077-.094s.077.031.077.094v.255h.128v-.255c0-.063.031-.094.077-.094s.077.031.077.094v.255h.128v-.302c0-.104-.057-.162-.154-.162zm.579.36c-.102 0-.169-.083-.169-.188 0-.104.072-.188.169-.188.062 0 .103.026.149.068l.082-.094a.298.298 0 0 0-.231-.094.303.303 0 0 0-.307.308.3.3 0 0 0 .302.308.31.31 0 0 0 .241-.104l-.082-.084c-.046.037-.087.068-.154.068zm.866-.063c0 .11-.087.167-.22.167h-.282v-.594h.271c.067 0 .118.02.154.052a.142.142 0 0 1 .041.099c0 .068-.036.104-.077.13.067.026.113.068.113.146zm-.379-.187h.118c.056 0 .092-.021.092-.063 0-.042-.031-.063-.087-.063h-.128v.126h.005zm.246.172c0-.042-.031-.063-.098-.063h-.148v.13h.154c.061 0 .092-.02.092-.067zm.497-.167c-.103-.026-.128-.042-.128-.078 0-.032.025-.052.077-.052.051 0 .102.02.153.057l.067-.1a.353.353 0 0 0-.22-.078c-.118 0-.205.073-.205.183 0 .12.077.151.194.183.098.026.118.041.118.078 0 .036-.03.057-.087.057a.25.25 0 0 1-.174-.073l-.077.094a.377.377 0 0 0 .251.094c.128 0 .215-.068.215-.188 0-.104-.066-.146-.184-.177zm.871.24c-.102 0-.169-.084-.169-.188s.072-.188.169-.188c.062 0 .103.026.149.068l.082-.094a.317.317 0 0 0-.231-.094.303.303 0 0 0-.307.308c0 .172.128.308.302.308a.31.31 0 0 0 .241-.105l-.082-.083c-.046.042-.087.068-.154.068zm.805-.115a.24.24 0 0 1-.246.24.234.234 0 0 1-.241-.235c0-.13.102-.235.246-.235.138-.01.241.094.241.23zm-.123 0c0-.068-.046-.125-.118-.125s-.118.057-.118.125.046.125.118.125.118-.057.118-.125zm.773-.24a.188.188 0 0 0-.148.073.135.135 0 0 0-.128-.073c-.067 0-.103.037-.134.073V17.4h-.123v.46h.129v-.256c0-.063.03-.094.076-.094.047 0 .077.031.077.094v.255h.128v-.255c0-.063.031-.094.077-.094s.077.031.077.094v.255h.128v-.302c-.005-.104-.061-.162-.159-.162zm.759.235c0 .156-.098.24-.205.24a.162.162 0 0 1-.138-.068V18h-.129v-.595h.129v.068a.16.16 0 0 1 .138-.073c.102-.005.205.079.205.23zm-.128 0c0-.078-.052-.125-.108-.125-.061 0-.107.052-.107.125 0 .078.051.125.107.125.056.005.108-.047.108-.125zm.584-.177c.036.036.046.083.046.146v.265h-.123v-.052c-.031.037-.072.058-.138.058-.087 0-.154-.053-.154-.141 0-.1.077-.146.184-.146.047 0 .077.005.113.02v-.005c0-.052-.031-.083-.097-.083a.307.307 0 0 0-.123.026l-.031-.099a.412.412 0 0 1 .174-.037c.062-.005.113.011.149.047zm-.077.224a.19.19 0 0 0-.082-.016c-.056 0-.087.02-.087.063 0 .036.031.057.072.057.061 0 .102-.031.102-.078v-.026h-.005zm.513-.282c-.067 0-.103.037-.134.073v-.063h-.128v.46h.128v-.256c0-.063.031-.094.082-.094.046 0 .077.031.077.094v.255h.128v-.297c0-.11-.056-.172-.153-.172zm.471.318-.103-.313h-.133l.174.46c-.01.02-.02.03-.046.03a.13.13 0 0 1-.056-.015l-.041.094c.031.02.067.031.113.031.077 0 .112-.037.148-.13l.175-.47h-.134l-.097.313zm1.399-5.058.184.297.026-.354.328-.084-.318-.125.026-.35-.226.272-.322-.13.184.292-.22.27.338-.088zm-.733-2.831.282.203-.108.334.282-.214.287.203-.107-.334.271-.203-.338.005-.108-.333-.107.339h-.354zm-6.344-.293c.077 0 .179-.135.241-.26.061-.13.092-.209.169-.376.005-.005-.005-.005-.01-.005-.087 0-.185.089-.246.162-.072.088-.195.26-.21.386-.011.067.015.093.056.093zm1.932.12c.087.047.19-.146.282-.323.092-.177.164-.396.087-.422-.087-.037-.2.135-.292.313-.087.177-.154.396-.077.432zm5.278 3.698-.271.224-.293-.193.129.328-.272.22.348-.022.129.33.087-.34.343-.016-.287-.187.087-.344zm-6.267-1.346c.031.094.149.668.184.782.036.12.072.126.093.167.071.178.169.183.22.198.144.042.154.24.251.418.082.167.169.313.241.49.077.177.461 1.152.528 1.298.025.052.205.052.184 0a4.092 4.092 0 0 1-.215-.641c-.046-.178.118-.052.015-.329a.955.955 0 0 0-.184-.307c-.051-.053-.103-.272-.144-.37-.041-.095-.02-.1-.102-.334-.062-.167.118-.11.015-.376a12.682 12.682 0 0 0-.43-.84 5.671 5.671 0 0 0-.164-.265c-.072-.12-.133-.25-.169-.303-.072-.11-.195-.36-.267-.459-.071-.104-.159-.328-.194-.292-.036.032.107.37.164.59.061.213.015.302-.021.365-.046.057-.046.094-.005.208zm-.308-5.793c3.214 0 5.822 2.654 5.822 5.924a5.934 5.934 0 0 1-.723 2.852c-.492-.668-1.875-2.534-1.937-2.639-.066-.12-.251-.292-.251-.292l-.082-.052c-.133-.172-.251-.14-.287-.151-.036-.01-.061-.042-.123-.089-.061-.047-.133-.036-.215-.088-.179-.126-.723-.71-.856-.83-.061-.062-.138-.187-.251-.187-.113 0-.318-.167-.353-.204-.031-.036-.221-.203-.246-.234-.026-.026-.159-.24-.472-.24-.266 0-.502.287-.646.412-.138.125-.281.214-.353.276-.067.063-.159.183-.2.214-.041.031-.123.13-.195.172a.902.902 0 0 0-.2.198c-.184.224-.333-.031-.676.37-.225.261-2.193 2.52-2.941 3.228a6.262 6.262 0 0 1-.646-2.716c.005-3.27 2.613-5.924 5.831-5.924zm-1.834 2.685a.927.927 0 0 0-.425.475c-.026.078-.041.156-.006.234.026.053.077.094.144.074.108-.021.19-.094.277-.183h.005c0 .036-.005.078 0 .115.01.026.041.057.072.062.102.021.235-.088.343-.187.005-.006.005 0 .005.005l-.077.172h.205l.174-.407c.031-.068.057-.125.123-.172.005-.005.021-.005.016 0a.14.14 0 0 0 .02.078c.016.021.041.037.067.042.031.005.077 0 .097-.01-.036.057-.066.125-.092.182a.282.282 0 0 0-.01.24c.02.047.082.089.143.073.113-.026.19-.1.282-.183 0-.005.01-.005.01 0a.26.26 0 0 0-.005.11c.01.031.041.063.077.063.103.02.246-.105.354-.193 0-.006.005 0 .005.005-.021.047-.062.135-.082.182h.205l.153-.344a1.57 1.57 0 0 1 .093-.182.457.457 0 0 1 .123-.141c.025-.01.056-.026.071-.021.011.005.016.036.006.052l-.272.631h.21c.062-.151.133-.297.2-.454a.403.403 0 0 1 .061-.099.363.363 0 0 1 .159-.146c.021-.01.057.006.046.032a7.768 7.768 0 0 1-.21.48c-.02.051-.041.114-.01.171.015.021.031.042.056.047.154.021.267-.104.364-.208 0 .068.031.14.077.172.092.068.205.057.297.005.195-.094.323-.292.369-.511h.005c.036.01.098.01.154-.01-.061.156-.123.286-.138.333-.072.172.031.256.148.22a.667.667 0 0 0 .252-.183h.005a.174.174 0 0 0 .01.146c.02.042.061.057.102.042.108-.032.216-.126.298-.209 0-.005.005-.005.005 0-.026.063-.062.14-.087.198h.205c.046-.094.092-.193.133-.287.061-.146.133-.286.277-.39.03-.022.066-.022.076-.011.011.005.011.031.011.036l-.205.475a.255.255 0 0 0-.011.125c.011.057.077.073.129.068.117-.021.199-.11.297-.178a.304.304 0 0 0 0 .141c.005.026.01.047.03.068a.167.167 0 0 0 .134.073c.169.005.343-.162.425-.323.005-.01-.056-.021-.061-.005-.067.11-.149.208-.267.25-.036.01-.082.005-.092-.031-.016-.063.015-.167.041-.225l.241-.532h.153l.031-.062h-.154l.149-.34h-.205l-.154.34h-.107l-.031.062h.108c-.057.141-.103.225-.164.37-.072.162-.216.256-.251.235-.026-.015-.016-.041-.011-.073.057-.13.123-.27.18-.406.025-.053.041-.11.01-.162-.026-.047-.082-.052-.128-.042-.103.016-.185.084-.262.146l.052-.12h-.21c-.057.12-.098.214-.154.34a1.057 1.057 0 0 1-.292.328c-.016.005-.041.01-.052-.01-.01-.042.011-.074.021-.105.067-.151.159-.36.241-.553h-.205c-.062.146-.123.266-.19.407-.056.115-.169.256-.235.266-.026.005-.047 0-.047-.02 0-.027.006-.048.021-.08l.251-.578c-.056 0-.149.005-.2 0-.01.02-.025.057-.036.089-.046.073-.159.177-.241.114 0-.036-.01-.052-.015-.083-.015-.057-.051-.115-.113-.136-.164-.052-.328.037-.435.162a.627.627 0 0 0-.19.365c-.051.078-.092.115-.159.177-.015.006-.036.016-.056.006-.01-.006-.01-.037 0-.047.061-.13.164-.386.225-.511.041-.094-.015-.193-.153-.157-.098.021-.164.084-.231.13.005-.052-.02-.12-.082-.13-.102-.026-.241.089-.297.141l-.005-.005.056-.12h-.2c-.056.125-.102.235-.148.344-.052.115-.19.271-.262.302-.03.016-.056.016-.066.006-.016-.01-.026-.021-.011-.058l.262-.589c-.139-.089-.323-.047-.461.02a.594.594 0 0 0-.18.131l-.082.058c-.031.026-.051.01-.061-.006-.005-.02.01-.052.015-.083.021-.042.056-.078.056-.125.006-.052-.066-.052-.097-.037-.077.042-.143.115-.205.162-.005.005-.005 0 0-.005l.051-.115h-.194l-.134.313c-.082.151-.174.282-.292.339-.01.005-.03.005-.046 0-.015-.01-.01-.047-.005-.068.092-.203.159-.365.251-.579-.138-.099-.333-.073-.461 0zm-2.465.068c0 .37.333.5.564.5.23 0 .44-.15.44-.302 0-.156-.087-.151-.112-.151-.067 0-.123.094-.082.203.025.068-.041.214-.251.214-.154 0-.364-.12-.364-.464 0-.339.379-.965 1.255-.965.313 0 .682.178.682.595 0 .24-.236.594-.6.594 0 0 .087-.485.323-.782.021-.026-.005-.047-.041-.026-.753.485-.656 1.909-1.506 1.909-.082 0-.4-.016-.4-.272 0 0-.016-.057.056-.11a.118.118 0 0 0 .062-.109.133.133 0 0 0-.134-.13c-.071 0-.107.063-.133.13-.02.063-.025.532.543.537.426.006 1.041-.297 1.194-1.084 0 0 .887-.1.887-.668 0-.318-.354-.615-.943-.646-.528-.016-1.44.271-1.44 1.027zm10.849 1.778-.17.313-.343-.068.236.256-.164.307.312-.15.246.255-.046-.35.308-.146-.333-.062-.046-.355zm-2.645-3.702.087.339.123-.334.344.01-.267-.218.123-.319-.282.193-.266-.219.087.345-.292.187.343.016zm.544.772.333.078.02.35.185-.303.338.078-.221-.266.18-.292-.313.13-.22-.266.02.355-.322.136zm1.04 1.09-.046.349.241-.26.317.14-.169-.308.236-.25-.333.063-.169-.308-.046.355-.344.067.313.152zm-4.054-2.879.323-.12.205.282-.01-.355.328-.12-.333-.104-.005-.344-.19.281-.328-.099.21.287-.2.292zm-1.173-.172.297-.183.256.235-.071-.344.297-.183-.344-.036-.066-.339-.139.318-.343-.031.261.24-.148.323zm2.624.516.153.313.057-.35.343-.057-.307-.167.061-.338-.241.245-.302-.162.148.323-.251.245.339-.052zm-4.894 3.165c.077 0 .184-.135.246-.26.061-.13.092-.209.169-.376.005-.005-.005-.005-.01-.005-.088 0-.185.089-.246.162-.077.088-.19.26-.211.386-.015.067.016.093.052.093zm-4.51.877.287-.199.277.209-.108-.334.282-.198-.348-.005-.108-.334-.113.334-.333-.005.272.203-.108.329zm-.205 1.298.246-.26.313.156-.169-.308.241-.25-.344.062-.169-.307-.046.349-.333.057.307.152-.046.349zm.646-2.524.323-.14.23.26-.041-.344.318-.14-.343-.074-.046-.355-.17.308-.333-.073.231.256-.169.302zm.999-1.194.18.302.025-.349.333-.078-.323-.136.021-.354-.226.266-.307-.136.179.297-.22.261.338-.073zm-1.599 5.027.195-.297.338.094-.22-.272.19-.292-.323.125-.226-.27.016.349-.313.125.328.088.015.35zm12.899 1.595-.308.167-.251-.25.067.344-.303.167.344.047.066.35.154-.319.338.047-.246-.234.139-.319zm-12.12-.62-.266-.219.128-.323-.292.187-.272-.224.087.34-.287.182.339.02.087.34.133-.33.343.027zm.159.939.067-.345-.251.245-.308-.166.149.318-.246.234.333-.041.148.313.072-.35.344-.042-.308-.166zm2.983-2.055c-.031-.02-.354.318-.569.553-.077.083-.123.161-.154.198 0 0-.097.162-.149.224-.051.068-.174.256-.23.334-.021.031-.067.151-.169.271-.046.063-.098.14-.19.266-.128.167-.225.303-.2.318.01.01.2-.219.395-.464.082-.1.174-.209.251-.308.036-.047.123-.13.149-.172.051-.073.102-.125.122-.146.113-.094.175-.099.205-.151.021-.026.236-.365.318-.5.087-.13.267-.381.221-.423zm1.337-.527c.021-.041.082-.172.077-.23 0-.01-.021-.025-.041-.004-.087.088-.277.417-.343.453-.159.079-.226.266-.272.34-.036.051-.077.14-.154.255-.066.099-.143.245-.169.292-.026.052-.036.099.015.099.052 0 .011.083-.051.177-.036.058-.123.313-.148.386-.031.089-.026.198-.041.235-.011.036-.18.396-.221.474-.03.053-.02.073-.03.1-.016.036 0 .041.03.015.031-.031.21-.302.262-.339.056-.036.102-.089.112-.203.006-.115.082-.152.144-.22.056-.067.133-.161.179-.26.036-.094.087-.02.18-.172.087-.146.292-.516.338-.59.046-.067.015-.171.005-.255a1.4 1.4 0 0 1 .031-.276c.025-.1.071-.209.097-.277zm-2.793-5.261.123.334.087-.34.344-.01-.292-.198.092-.344-.272.219-.282-.193.118.323-.271.214.353-.005zm8.245 7.17c.036.036.113.125.123.11.016-.016-.02-.063-.046-.1-.02-.036-.143-.177-.169-.213a8.78 8.78 0 0 0-.241-.35c-.102-.135-.01-.182-.061-.26a2.934 2.934 0 0 0-.302-.355c-.077-.078-.164-.157-.236-.224-.123-.11-.21-.193-.226-.173-.02.021.052.105.077.146.031.037.077.11.139.183.102.125.01.22.107.318.016.016.287.324.349.38.107.09.461.512.486.538zm-1.486-.5c.098.161.123.13.164.135.093.005.298.224.339.287.035.062.369.396.456.48.035.036.297.469.333.438.036-.032-.103-.24-.123-.282-.016-.047-.093-.115-.134-.209a2.814 2.814 0 0 0-.24-.412c-.052-.078-.134-.245-.221-.354-.082-.094-.015-.12-.102-.204-.051-.047-.21-.193-.246-.224-.036-.026-.164-.146-.241-.214-.072-.067-.251-.193-.246-.27.005-.084-.036-.24-.092-.293-.046-.036-.174-.245-.318-.365a3.627 3.627 0 0 1-.348-.375c-.118-.136-.2-.266-.226-.245-.036.026.133.266.149.292.015.03.215.375.235.469.021.089.385.72.467.918.041.099.287.25.394.427zm-3.469-7.843.256-.235.298.182-.139-.328.256-.24-.343.031-.133-.318-.077.34-.343.036.297.182-.072.35zm-2.27.448.056.35.154-.313.338.057-.251-.25.154-.319-.308.162-.235-.245.056.339-.307.162.343.057zm1.122-.156.205-.277.328.12-.2-.292.21-.281-.328.099-.189-.287-.01.344-.328.099.328.125-.016.35z" fill="#fff"/>
        <path fill-rule="evenodd" clip-rule="evenodd" d="M231.736 10.115c.02.424.035.726.033.741l-.303.155s.086-1.716.115-3.422c.021-.711-.159-3.094-.159-3.094l.302-.155s-.102 2.767-.098 3.066c.004.519.069 1.86.11 2.709zm-6.572 1.114c-.128-.15-.172-.202.022-.628a.678.678 0 0 0 .018-.23l-.001-2.685-.509.25-.001 6.532c.009 0 .51-.276.51-.276v-2.786c.004-.083-.002-.128-.017-.15l-.022-.027zm2.342 5.238c0 .457-.468.827-1.046.827-.578 0-1.047-.37-1.046-.827 0-.457.468-.828 1.046-.828.577 0 1.046.37 1.046.828zm-.437.011a.594.594 0 0 0-1.189 0c0 .326.266.591.594.591a.593.593 0 0 0 .595-.591zm-2.222.729c-.364.145-.922.105-1.283-.098l.002.132-.187.003-.002-.578h.186c.022.173.204.294.347.343.25.076.598.119.828-.042.054-.037.057-.116.035-.168-.058-.08-.138-.088-.222-.098a.97.97 0 0 1-.077-.01 2.915 2.915 0 0 0-.295-.036c-.314-.027-.642-.054-.8-.36a.352.352 0 0 1 .074-.401c.267-.309.969-.304 1.388-.095l.069.03.001-.1.191.002.001.487-.187.002c-.089-.267-.371-.314-.606-.341-.214-.017-.558.005-.567.184 0 .072.047.092.07.1.151.04.31.058.469.076.237.027.473.053.683.15a.456.456 0 0 1 .213.387.506.506 0 0 1-.331.43zm5.911-.193-.001-.363-.547-.714h-.26v-.198l.931.002v.196h-.148l.321.435.373-.435h-.147l.001-.196h.753v.196h-.242l-.586.69.001.388.244-.001v.2l-.928-.001v-.2l.235.001zm-3.08-1.275.648.002.9.856v-.66l-.223.001v-.197l.761-.002v.198h-.225l-.003 1.278-.268-.002a19.22 19.22 0 0 1-.488-.45 16.235 16.235 0 0 0-.573-.525v.779h.234l-.002.196-.761.001v-.198h.234l-.002-1.078-.232-.001v-.198zm2.957 2.409-.028-.008h.028v.008zm-6.91-.276v.293h.133c.179 0 .244-.04.244-.148 0-.1-.073-.145-.239-.145h-.138zm.222.39h-.222v.18l.002.044c.001.082.011.091.089.091h.044v.095h-.51v-.095h.066c.078 0 .087-.01.089-.091l.002-.042v-.438l-.002-.041c-.002-.082-.011-.093-.089-.093h-.066v-.096h.598c.172 0 .229.012.301.07a.23.23 0 0 1 .091.18c0 .102-.068.182-.18.215a.654.654 0 0 1-.213.02zm1.043.311h-.048c-.079 0-.088-.011-.09-.091l-.002-.042V18l.002-.04c.002-.082.011-.093.09-.093h.048v-.096h-.5v.096h.051c.079 0 .088.01.09.093l.001.04v.439l-.001.041c-.002.083-.011.092-.09.092h-.043v.096h.492v-.096zm.944-.8h.129v.35h-.122c-.019-.093-.037-.131-.089-.179a.295.295 0 0 0-.207-.073c-.2 0-.295.115-.295.36 0 .232.098.347.289.347.113 0 .203-.042.249-.118a.342.342 0 0 0 .046-.135h.13c-.012.128-.033.18-.103.248a.371.371 0 0 1-.166.093.716.716 0 0 1-.178.021c-.314 0-.52-.184-.52-.47 0-.272.205-.464.495-.464a.39.39 0 0 1 .242.069l.015.011.044.035.041-.096zm.294 0v.368h.115v-.028c0-.163.092-.243.274-.245v.614c-.001.082-.012.091-.09.091h-.04v.096h.488v-.096h-.047c-.08 0-.089-.01-.091-.091v-.614c.195.005.277.085.278.273h.121v-.369h-1.008zm1.141.095h-.019v-.096h.488v.096h-.067c-.08 0-.089.011-.091.093l-.002.04v.313c0 .122.007.151.041.188.037.04.117.067.2.067s.155-.025.189-.067c.035-.04.039-.058.039-.188v-.313l-.001-.04c-.002-.082-.012-.093-.09-.093h-.038v-.096h.418v.096h-.035c-.078 0-.088.011-.089.093V18.419a.276.276 0 0 1-.026.106.25.25 0 0 1-.092.096.599.599 0 0 1-.302.067c-.21 0-.357-.06-.403-.17-.024-.055-.029-.093-.029-.204v-.313l-.002-.04c-.001-.082-.011-.093-.089-.093zm1.551.284v-.284h.173c.151 0 .221.046.221.146 0 .099-.061.138-.217.138h-.177zm0 .095h.145c.041 0 .091.02.122.044.044.036.052.063.055.195.005.14.073.202.225.202.151 0 .208-.058.208-.212l-.002-.064h-.105l.001.052.002.014c0 .064-.014.088-.051.088-.033 0-.049-.017-.053-.055l-.005-.09c-.005-.084-.036-.138-.097-.17a.37.37 0 0 0-.116-.034.605.605 0 0 0 .178-.046c.086-.036.128-.094.128-.174a.21.21 0 0 0-.12-.185c-.061-.034-.095-.04-.22-.04h-.666v.096h.062c.078 0 .088.01.089.093l.002.04v.439l-.002.041c-.001.081-.011.092-.089.092h-.062v.096h.499v-.096h-.036c-.078 0-.089-.011-.09-.091l-.002-.042v-.193zm.877-.475h.997v.365h-.122a.342.342 0 0 0-.042-.182c-.036-.062-.096-.087-.218-.087h-.272v.293h.089c.096 0 .134-.045.134-.16v-.016h.114v.458h-.114c0-.147-.036-.192-.154-.192h-.069v.321h.27c.125.001.173-.015.219-.074a.186.186 0 0 0 .041-.124v-.018l.001-.046h.124v.359h-.995v-.096h.031c.078 0 .088-.01.089-.091v-.512l-.001-.047c-.006-.043-.023-.055-.088-.055h-.034v-.096zm2.071 0h-.098l-.047.082a1.612 1.612 0 0 0-.042-.029l-.02-.013a.489.489 0 0 0-.254-.06c-.241 0-.392.107-.392.276 0 .045.013.088.039.124.044.066.107.094.266.12.162.028.261.048.326.066.072.02.11.058.11.109 0 .08-.082.127-.222.127a.461.461 0 0 1-.269-.082c-.072-.054-.095-.097-.117-.206h-.112v.383h.112l.041-.096c.023.019.041.033.057.043a.53.53 0 0 0 .293.071c.242 0 .395-.106.395-.277 0-.1-.055-.177-.169-.229a1.117 1.117 0 0 0-.319-.078c-.191-.029-.236-.052-.236-.12 0-.075.077-.122.202-.122.19 0 .316.091.346.253h.11v-.342zm-7.842-9.508.473-.231v6.54l-.475.243.002-6.552zm-.219.12-.49.236v6.552l.49-.262V8.384zm7.268 2.83s-.152-3.065-.126-3.465c.02-.31.117-3.072.117-3.072l-.391.203s.163 2.238.194 3.006c.001.24-.087 3.476-.087 3.476s.197-.105.293-.149zm-.864-2.593c.014.595.168 2.94.168 2.94l-.328.172s.067-2.472.071-3.305c-.015-.68-.197-3.163-.197-3.163a2.04 2.04 0 0 1 .32-.166 8.73 8.73 0 0 0 .081-.036s-.134 2.88-.115 3.558zm-.553 3.305s-.195-2.665-.185-2.986c.01-.676.115-3.51.115-3.51l-.41.211s.189 2.749.189 3.196c0 .35-.044 1.761-.071 2.619l-.02.673c.009-.014.382-.203.382-.203zm-.942-2.574c.005.585.186 2.97.186 2.97l-.401.203h-.007s.111-2.897.096-3.346c.037-.445-.218-3.115-.218-3.115l.468-.248-.009.165c-.031.58-.137 2.52-.115 3.371zm-.544 3.335s-.213-2.165-.205-3.402c-.008-.597.151-3.094.151-3.093l-.104.05a4.839 4.839 0 0 0-.42.219c0 .015.011.124.028.293.064.656.218 2.22.211 2.839.031.665-.197 3.368-.197 3.368l.536-.274zm-.89-4.584c-.138 1.336-.159 2.774.074 4.08l.086.88-.569.289-.01.01s-.002-1.099 0-1.137c.137-1.15.265-2.704-.015-4.041V6.826l.579-.29-.145 1.567zm-.604 4.115c-.306-1.265-.238-2.452 0-4.011l.002-1.28-.531.26v1.95c.171 1.006.193 1.562-.024 2.544l-.004 2.054.557-.28v-1.237zm-.752-2.98c-.158.872-.279 1.649-.015 2.451l-.001 2.167-.536.27-.001-2.773a.47.47 0 0 1 .017-.171c.198-.291.221-.434.04-.67l-.023-.03c-.02-.022-.034-.04-.032-.078V7.585l.544-.276h.009l-.002 1.93zm6.123 8.604v-.06h.274v.06h-.093v.305h-.085v-.305h-.096zm.309.305v-.364h.128l.029.11.005.016a.858.858 0 0 1 .026.124l.002.018v.003h.003v-.002l.003-.024c.005-.035.015-.082.02-.104l.003-.01.034-.131h.126v.364h-.079v-.213l.002-.046.003-.037.001-.006h-.004c-.003.015-.003.017-.011.046a.329.329 0 0 1-.009.036l-.004.018-.006.018-.049.184h-.066l-.05-.18-.017-.063-.012-.053-.001-.007h-.003v.008c.003.039.006.083.006.107v.188h-.08zM272.999 15.784h-18.995l-.004.01v.202l.007.004h18.989c.008-.065.001-.145.003-.216zm-.846-2.088c.049.045.07.116.068.21h.076v-.31h-1.062c-.008.095-.001.207-.003.31.02-.005.059.008.068-.008.015-.078.022-.164.079-.201a.793.793 0 0 1 .283-.03c-.002.35.005.709-.004 1.052-.029.045-.125.026-.185.043-.013.006-.01.055 0 .061.187.008.39.001.582.004v-.072c-.071-.001-.147.002-.181-.033-.014-.012-.005-.046-.015-.061.005-.329-.01-.675.007-.99.101-.01.212 0 .287.026zm-1.193-.036v-.065h-.416v.065c.067 0 .133.001.159.04.029.25.012.564.011.831-.224-.313-.452-.622-.676-.936h-.336c-.009.015-.001.045-.004.065.055 0 .104.004.14.022.008.004-.001.024.011.025v.45c0 .195.011.412-.019.562-.018.036-.081.03-.124.043-.014.006-.011.055 0 .061.128.008.273.001.408.004v-.072c-.068.003-.122-.007-.152-.04-.02-.048-.009-.119-.015-.18-.023-.236-.004-.517 0-.745.253.343.501.69.748 1.037.037-.004.093.008.117-.008.014-.358-.008-.749.012-1.101.013.003.005-.014.007-.021.028-.027.067-.042.129-.037zm-2.41 1.073c-.032.02-.081.024-.136.022v.072h.959c.009-.112.02-.222.023-.339-.021.005-.06-.009-.068.008-.023.07-.031.155-.079.2-.094.07-.338.063-.465.026-.015-.011-.014-.04-.023-.057v-.443c.127-.001.254-.002.363.014.04.027.043.082.053.137.008.016.047.003.068.007V14h-.076c.034.211-.235.136-.408.15.005-.155-.01-.33.008-.474.132-.014.311-.014.415.021.053.044.069.122.076.21h.076v-.31h-.918c-.009.014-.002.044-.004.064a.344.344 0 0 1 .136.018c.006.011.005.028.015.036v.99c-.017-.005 0 .022-.011.022l-.004.007zm-1.889-1.033c-.004.33.009.676-.007.993-.011.01-.009.03-.019.04a.204.204 0 0 1-.117.022v.072c.134-.005.287.009.408-.008.013-.006.01-.054 0-.06-.056-.006-.115-.007-.144-.037l-.007-.003c-.03-.268-.013-.6-.012-.886.15.32.292.648.442.968.013.009.042.002.061.004.152-.325.297-.657.453-.98v.876c-.012 0-.004.02-.011.025-.026.03-.082.03-.14.029v.072h.498v-.072c-.061.002-.113-.003-.143-.03.004-.015-.004-.02-.008-.028v-.983c.012 0 .003-.02.012-.025.026-.028.082-.03.139-.029v-.064h-.347c-.066.16-.143.31-.212.467-.075.152-.137.316-.219.461-.141-.31-.287-.614-.423-.928h-.355v.064c.064 0 .133-.003.151.04zm-1.73-.043c.048.007.107.004.136.028l.008.004c.012.267.013.583 0 .85.001.07 0 .136-.019.187-.024.026-.071.03-.125.029v.072h.416c-.004-.022.007-.058-.008-.069-.055-.004-.11-.008-.143-.032a.146.146 0 0 0-.016-.044 14.74 14.74 0 0 1-.003-.892c.25.343.501.686.744 1.037h.121v-.997c.014-.042.002-.109.026-.14.024-.027.071-.031.125-.03v-.064h-.416v.064a.382.382 0 0 1 .136.018c.012.006.014.02.023.03.024.252.016.555.011.823a9.001 9.001 0 0 1-.17-.23c-.059-.075-.108-.16-.173-.23-.049-.086-.112-.158-.167-.238-.025-.042-.058-.076-.083-.119-.029-.038-.059-.075-.083-.118h-.347c.003.02-.008.052.007.06zm-.445.025a.26.26 0 0 1 .135-.022v-.064h-.494c-.009.014-.002.044-.004.064a.344.344 0 0 1 .136.018c.006.011.006.028.015.036v.99c-.013.002-.005.024-.015.029-.032.02-.081.024-.136.022v.072h.498v-.072c-.06.002-.113-.003-.143-.03-.014-.287-.008-.619-.008-.913 0-.042-.008-.086.012-.123l.004-.007zm-1.406.59c.049-.158.112-.301.159-.46h.015c.048.158.105.308.159.46h-.333zm.348.555h.468v-.072h-.057c-.003-.01-.02-.007-.033-.008.004-.01-.009-.006-.015-.007-.07-.114-.106-.26-.151-.396-.014.002-.005-.017-.016-.018-.035-.126-.087-.236-.121-.363-.013.002-.004-.018-.015-.018-.033-.119-.081-.222-.113-.342l-.008-.007h-.143a.484.484 0 0 1-.053.144c-.026.087-.052.175-.091.251-.021.074-.042.148-.075.21a.64.64 0 0 1-.061.165c-.019.073-.044.14-.075.201a.208.208 0 0 1-.038.094c-.002.04-.027.058-.049.08-.014.004-.029.007-.042.014h-.053l-.007.007v.065h.4v-.065c-.041-.015-.109-.004-.143-.025.027-.14.076-.259.117-.386h.389c.04.129.09.248.128.378-.022.036-.102.016-.143.033v.065zm-.929-1.13c.049.043.065.12.068.208h.075v-.31h-1.069c-.009.096-.001.208-.004.31h.076c.01-.085.023-.168.079-.208a.688.688 0 0 1 .284-.026v.932c0 .04.007.086-.012.123-.033.037-.123.019-.177.036-.017.008-.003.045-.008.065h.589v-.072a.379.379 0 0 1-.181-.026c-.006-.01-.005-.028-.015-.036.003-.34-.005-.69.004-1.025a.876.876 0 0 1 .291.029zm-1.776-.015c.018-.013.064 0 .08-.014.118-.004.204.023.26.079.003.029.031.05.038.083a.409.409 0 0 1-.038.262c-.058.079-.187.087-.347.08.004-.163-.009-.34.007-.49zm-.347 1.08c-.017.008-.003.045-.008.065h.499v-.072c-.051.001-.098 0-.128-.019l-.008-.003c-.032-.135-.007-.324-.015-.482.112 0 .235-.01.287.046.113.152.034.478.257.522a.09.09 0 0 1 .049.008h.162v-.065a.215.215 0 0 1-.136-.076c-.054-.108-.053-.268-.113-.37-.017-.006-.023-.022-.03-.037-.034-.026-.076-.045-.114-.068.131-.043.222-.125.242-.274a.327.327 0 0 0-.09-.252c-.166-.146-.562-.071-.862-.09v.065c.063.002.133-.003.151.04v1.019c-.018.042-.098.026-.143.043zm-1.292 0c-.017.008-.003.045-.007.065.319-.005.657.009.963-.008.008-.021.001-.059.003-.086.015-.03.004-.07.008-.112.005-.049.013-.096.008-.126-.009-.016-.048-.002-.068-.007-.017.089-.034.177-.095.223-.04.021-.095.027-.147.037-.109-.003-.236.01-.302-.033l-.008-.004a2.183 2.183 0 0 1-.007-.486c.127-.002.301-.018.385.033.011.037.023.074.023.122.023-.003.06.007.071-.007.009-.118.002-.25.004-.374h-.075c-.005.047-.008.096-.034.122-.086.041-.263.033-.378.022-.003-.147-.015-.334.007-.468.142-.013.34-.02.435.036a.34.34 0 0 1 .053.194h.075v-.31h-.918c-.008.015-.001.045-.003.065a.302.302 0 0 1 .143.022c.014.291.008.627.008.925 0 .043.008.088-.012.126-.026.027-.094.013-.132.029zm-.415-1.066c.048.045.066.12.068.21h.075v-.31h-1.069c-.009.095-.001.207-.004.31h.076c.013-.084.022-.17.079-.21a.796.796 0 0 1 .284-.028v.932c0 .042.007.088-.012.126-.033.037-.123.019-.177.036-.014.006-.011.055 0 .061.186.008.389.001.581.004v-.072c-.067 0-.135.002-.173-.026l-.008-.007c-.015-.003 0-.033-.015-.036.005-.337-.01-.692.007-1.015a.74.74 0 0 1 .288.025zm-1.194-.036v-.065h-.416v.065c.068-.002.126.005.159.036.028.253.013.566.011.835-.224-.312-.453-.621-.676-.936h-.34v.065c.055 0 .105.004.14.022.008.004 0 .024.012.025-.01.323.02.727-.019 1.012-.019.036-.082.03-.125.043-.017.008-.003.045-.008.065h.416v-.072a.298.298 0 0 1-.129-.019l-.022-.021c-.02-.04-.01-.1-.015-.151-.024-.24-.001-.532-.004-.774.071.078.122.174.193.252.053.095.129.17.181.266.042.033.061.089.098.126.029.046.064.086.091.133.068.082.124.175.189.26h.113c.008-.376-.021-.79.023-1.13.027-.027.067-.042.128-.037zm-2.546 0c.055 0 .108 0 .136.025.013.006.004.033.015.04v.968c-.013.006-.003.033-.015.04-.032.02-.08.024-.136.022v.072h.959c.008-.113.018-.223.023-.339-.021.005-.059-.009-.068.008-.022.081-.038.17-.098.215-.105.049-.327.049-.446.011l-.007-.003c-.032-.14-.008-.334-.015-.497.127-.001.254-.002.362.014.035.03.052.076.046.144h.075V14h-.075c.032.21-.235.136-.408.15.005-.154-.01-.328.007-.47.069-.024.182-.005.268-.011.049.01.107.011.148.028.05.046.069.122.075.21h.076v-.31h-.918c-.009.014-.001.044-.004.064zm13.727-1.432a3.372 3.372 0 0 1-.348-.029c-.028-.002-.067.006-.083-.007h-.072l-.011-.007c-.071 0-.105-.035-.121-.087v-.046l.008-.011v-.018c.013-.024.021-.054.03-.083.012.004.003-.012.015-.007a.465.465 0 0 1 .075-.13c.009-.025.017-.051.038-.065a.406.406 0 0 1 .068-.115c.006-.02.012-.041.03-.05a.63.63 0 0 1 .084-.137.509.509 0 0 1 .075-.122c.002-.017.008-.031.022-.036a.163.163 0 0 1 .046-.072.792.792 0 0 1 .106-.166c.002-.017.008-.031.022-.036a.407.407 0 0 1 .076-.115.39.39 0 0 1 .076-.115.183.183 0 0 1 .052-.08.194.194 0 0 1 .053-.079.3.3 0 0 1 .068-.1 1.23 1.23 0 0 1 .144-.21c.033-.076.093-.127.128-.2.013 0 .01-.016.023-.015.015-.04.045-.065.064-.101.039.01.049.047.064.08a.39.39 0 0 1 .076.114.393.393 0 0 1 .075.116.094.094 0 0 1 .038.057.396.396 0 0 1 .076.115c.043.052.081.11.113.173a.415.415 0 0 1 .076.115.096.096 0 0 1 .037.058c.048.06.093.123.129.194a.396.396 0 0 1 .075.115.89.89 0 0 1 .114.173c.043.052.081.11.113.173a.1.1 0 0 1 .038.057.094.094 0 0 1 .037.058c.044.052.082.11.114.173.055.066.099.143.143.22.001.02.01.031.015.046v.072c-.035.078-.138.091-.253.094a3.928 3.928 0 0 1-.359.036l-.007.007v.151h2.1v-.151l-.008-.007c-.027-.003-.066.006-.083-.007h-.049l-.011-.008c-.019.001-.036.001-.045-.007h-.034l-.012-.007h-.026c-.1-.03-.213-.05-.276-.115-.019-.004-.031-.016-.045-.029-.033-.03-.059-.063-.091-.09v-.01c-.013-.01-.029-.016-.03-.037-.011-.006-.024-.01-.023-.029-.011-.002-.014-.012-.022-.018-.029-.055-.075-.094-.099-.154a.182.182 0 0 1-.052-.08.708.708 0 0 1-.106-.158.176.176 0 0 1-.053-.08.902.902 0 0 1-.121-.179.184.184 0 0 1-.053-.08.176.176 0 0 1-.053-.079 1.079 1.079 0 0 1-.121-.18.74.74 0 0 1-.105-.158.746.746 0 0 1-.106-.158.286.286 0 0 1-.068-.1.177.177 0 0 1-.053-.08.742.742 0 0 1-.106-.158.186.186 0 0 1-.053-.08.901.901 0 0 1-.12-.18.187.187 0 0 1-.054-.079.742.742 0 0 1-.105-.158.177.177 0 0 1-.053-.08.285.285 0 0 1-.068-.1.522.522 0 0 1-.091-.137c.054-.078.103-.162.167-.23a.918.918 0 0 1 .128-.18.563.563 0 0 1 .098-.137c.04-.068.085-.13.136-.187a.911.911 0 0 1 .121-.166c.008-.023.027-.044.038-.064.005-.01.025-.021.03-.03v-.014l.023-.014c.012-.016.013-.043.037-.05a.345.345 0 0 1 .076-.101.314.314 0 0 1 .076-.101.212.212 0 0 1 .06-.08.454.454 0 0 1 .083-.107.117.117 0 0 1 .046-.058.213.213 0 0 1 .06-.08.27.27 0 0 1 .068-.085.161.161 0 0 1 .053-.065c.003-.024.022-.031.038-.043.005-.027.027-.036.045-.05v-.015c.052-.035.096-.104.151-.13.031-.041.086-.059.132-.086a.376.376 0 0 0 .091-.03c.017.004.025-.001.034-.006h.026c.004-.011.024-.007.038-.007l.011-.008h.042a.876.876 0 0 1 .185-.014v-.158h-1.609v.158c.076.007.151.015.219.029.022 0 .049-.004.06.007h.042l.011.007c.091.005.153.038.174.108v.047l-.008.01v.019c-.012.008-.006.035-.022.04-.002.026-.012.046-.03.057a.627.627 0 0 1-.084.137.25.25 0 0 1-.052.086c-.003.017-.008.03-.023.036a.165.165 0 0 1-.046.072.346.346 0 0 1-.067.108c-.003.017-.008.03-.023.036a.77.77 0 0 1-.098.151.098.098 0 0 1-.038.058.095.095 0 0 1-.038.058.176.176 0 0 1-.053.079c-.038.073-.084.14-.136.201a.417.417 0 0 1-.083.122c.005.018-.012.013-.007.03-.108.132-.195.284-.302.417.003.014-.007.015-.012.021h-.026c-.051-.079-.108-.151-.151-.237a.094.094 0 0 1-.038-.058.094.094 0 0 1-.038-.057 1.042 1.042 0 0 1-.128-.195.094.094 0 0 1-.038-.057.413.413 0 0 1-.076-.115.391.391 0 0 1-.075-.116 1.045 1.045 0 0 1-.129-.194.099.099 0 0 1-.037-.057.095.095 0 0 1-.038-.058.883.883 0 0 1-.114-.173.182.182 0 0 1-.052-.08.84.84 0 0 1-.113-.172.665.665 0 0 1-.114-.18c.002-.016-.001-.027-.007-.036.034-.121.202-.117.351-.13a.453.453 0 0 1 .128-.014c.007-.013.038-.004.057-.007v-.158h-1.881v.158c.046.004.109-.008.143.007h.057l.011.007h.034c.028.011.058.02.095.022.029.018.063.03.098.043-.001.013.015.01.015.022.025.002.033.021.045.036.019 0 .03.01.031.029.02.017.045.028.052.057.013.01.03.015.031.036.011.007.023.011.022.03.012 0 .015.012.023.017.037.067.091.117.121.19.015.006.02.02.023.037.035.04.066.085.09.136.035.041.067.086.091.137.036.04.066.086.09.137.042.047.077.1.106.158.036.041.067.085.091.137a.1.1 0 0 1 .038.058.196.196 0 0 1 .053.08c.035.04.066.084.09.136.037.04.067.085.091.137.054.066.102.137.144.216.054.065.101.138.143.216.037.039.066.085.091.136a.54.54 0 0 1 .09.137.741.741 0 0 1 .098.144l-.015.015c.002.013-.005.018-.015.021a.067.067 0 0 1-.03.043c-.035.063-.076.12-.121.173a.779.779 0 0 1-.106.151c-.035.063-.075.12-.12.173.004.021-.021.014-.015.036-.013 0-.01.015-.023.014-.044.084-.108.147-.151.23-.013 0-.01.016-.023.015a.72.72 0 0 1-.114.158.533.533 0 0 1-.097.137.39.39 0 0 1-.084.116.256.256 0 0 1-.067.093.271.271 0 0 1-.069.094.16.16 0 0 1-.052.072.17.17 0 0 1-.053.072.68.68 0 0 1-.106.143.083.083 0 0 1-.038.051.083.083 0 0 1-.038.05c0 .025-.025.033-.038.05-.007.01-.007.027-.015.037-.01.012-.015.013-.022.028l-.015.008v.014l-.015.007c-.008.013-.007.027-.023.03.001.017-.012.022-.023.028a.253.253 0 0 1-.075.093c-.005.027-.028.036-.046.05a.21.21 0 0 1-.09.087c-.013.015-.021.033-.046.036-.051.059-.149.074-.234.101h-.026l-.012.007h-.034l-.011.007h-.041c-.013.015-.052.004-.076.008-.032.016-.098 0-.132.014v.151h1.775c-.004-.051.009-.119-.007-.158zm-7.721-4.435c.06-.166.152-.304.317-.37.326-.138.835-.1 1.3-.105v4.222c0 .194.019.404-.072.537-.013.015-.032.025-.042.043-.194.09-.477.095-.744.115-.009.043-.001.102-.004.151h2.448c-.005-.048.01-.115-.008-.151-.271-.022-.564-.023-.747-.13-.125-.1-.106-.312-.106-.507 0-1.43-.003-2.87.004-4.28.575.007 1.223-.054 1.499.238.029.056.071.1.091.166.031.054.046.123.068.187.029.14.053.285.06.446h.189V7.117h-4.552l-.003.01v1.228h.189a2.09 2.09 0 0 1 .113-.562zm-5.862 4.298c.18.152.422.246.687.317.04.003.072.013.106.021a.053.053 0 0 1 .038.008.25.25 0 0 1 .075.014c.019-.001.036-.001.046.007.018 0 .036 0 .045.007.061.002.115.011.166.022.244.027.503.019.744-.007.006-.013.035-.005.053-.008.005-.012.029-.005.045-.007.005-.012.03-.005.046-.007l.011-.007c.699-.119 1.103-.518 1.269-1.145-.002-.016.001-.027.008-.036-.002-.016.001-.027.007-.036 0-.019-.003-.04.008-.05a2.121 2.121 0 0 0-.008-.472c-.014-.006-.005-.033-.007-.05-.012-.003-.007-.022-.008-.036-.011-.003-.007-.022-.007-.036a1.283 1.283 0 0 0-.25-.511c-.106-.142-.258-.24-.393-.356-.018 0-.023-.011-.03-.022a.451.451 0 0 1-.113-.072c-.091-.045-.183-.09-.272-.137a.117.117 0 0 1-.068-.028c-.036.002-.04-.025-.076-.022.006-.015-.021 0-.015-.015-.077-.02-.145-.048-.219-.071h-.022c-.033-.022-.083-.027-.114-.05a.074.074 0 0 1-.053-.022.074.074 0 0 1-.053-.022.07.07 0 0 1-.052-.022.558.558 0 0 1-.151-.064h-.023c-.066-.043-.151-.068-.212-.116-.022-.005-.043-.011-.053-.028-.053-.017-.084-.054-.135-.072 0-.013-.016-.01-.016-.022-.027-.005-.037-.027-.052-.043a.173.173 0 0 1-.084-.08c-.017-.014-.04-.024-.045-.05a.855.855 0 0 1-.204-.374v-.025l-.007-.011v-.04a.796.796 0 0 1 0-.248c0-.052.01-.101.022-.137.008-.023.008-.054.015-.079.008-.025.022-.051.031-.08l.015-.014v-.021c.002-.008.015-.02.022-.033.007-.012.01-.032.015-.04l.015-.006.008-.03.015-.006v-.015l.015-.007v-.014l.016-.008v-.014l.022-.014v-.015c.011-.016.035-.024.045-.036v-.014c.008-.011.03-.03.042-.036.019-.01.028-.027.045-.036.024-.013.043-.03.061-.043.017-.013.058-.033.075-.044a.243.243 0 0 1 .046-.021c.026-.007.035-.015.052-.022.013-.004.03-.002.042-.007l.019-.014c.046-.014.091-.017.143-.03.029-.006.062-.017.099-.014a.997.997 0 0 1 .306-.007c.023.002.055-.004.068.007h.041c.583.116.813.567.903 1.152.061-.004.14.009.189-.007V7.304c-.019 0-.024-.011-.03-.022-.093-.043-.171-.102-.28-.13-.051-.03-.124-.04-.181-.064a.477.477 0 0 1-.091-.022.053.053 0 0 1-.038-.007c-.017.002-.029-.001-.037-.007-.019 0-.037 0-.046-.007a.329.329 0 0 1-.098-.015c-.022 0-.049.004-.06-.007-.174-.011-.373-.036-.556-.014-.089-.006-.152.013-.234.014-.006.013-.035.005-.053.007a.197.197 0 0 1-.083.015l-.011.007h-.027c-.077.024-.144.036-.215.057-.025.008-.047.025-.064.03-.045.01-.072.028-.106.042h-.019c-.01.004-.033.024-.041.03-.018.01-.046.014-.057.02l-.011.015c-.02.01-.025.013-.038.022-.011.007-.027.01-.034.014-.008.005-.01.018-.019.022-.025.01-.041.029-.06.043-.019.014-.041.04-.061.05a.689.689 0 0 0-.102.086v.015c-.012.018-.039.028-.053.043v.015c-.006.01-.026.015-.03.021v.015l-.023.014v.015c-.005.008-.022.017-.03.028v.015l-.015.007c-.006.01-.009.028-.015.036l-.015.007c-.014.023-.023.055-.038.083-.026.05-.047.081-.06.133l-.015.022c-.019.054-.027.106-.046.158v.025l-.007.011c.001.018.001.035-.008.043 0 .02.003.041-.007.05-.014.136-.008.287.007.415.013.004.006.028.008.043l.007.01v.026c.018.033.017.084.038.115.01.073.052.116.068.184.031.035.052.08.076.122.011.002.014.013.022.018.057.09.144.154.219.227.046.016.065.058.114.072-.001.012.015.009.015.021.018 0 .023.011.03.022a.298.298 0 0 1 .091.057c.043.017.079.04.113.065.128.063.261.12.385.188a.53.53 0 0 1 .136.057c.025 0 .04.01.053.022.036-.003.04.024.076.021-.006.015.02 0 .015.015.018-.002.031.003.037.014.079.023.16.045.227.08a.135.135 0 0 1 .076.028c.146.043.256.12.377.187 0 .012.016.01.015.022a.194.194 0 0 1 .076.057h.015c.039.046.086.084.129.126v.011c.046.042.086.09.113.151.033.04.059.088.075.144.025.026.025.075.046.104.003.035.013.063.022.09v.026l.008.01v.033l.007.01v.048a.893.893 0 0 1 0 .291v.047a1.78 1.78 0 0 0-.022.09c-.009.041-.02.072-.03.1-.008.021-.008.047-.015.066l-.016.014v.021c-.004.013-.02.029-.03.047-.009.018-.015.043-.023.054l-.015.008-.007.028-.015.007c-.009.01-.01.03-.015.036l-.023.015v.014c-.006.01-.023.013-.03.022v.014c-.013.019-.043.034-.068.058-.045.043-.08.076-.125.108a1.101 1.101 0 0 1-.559.173 1.377 1.377 0 0 1-.313 0h-.05l-.011-.007h-.034l-.011-.008c-.018.002-.029-.001-.038-.007h-.027c-.602-.163-.898-.62-1.068-1.195-.007-.067-.033-.115-.038-.184l-.008-.01v-.036c-.049-.016-.127-.004-.189-.008.02.421.051.83.076 1.246.011-.001.007.012.023.007" fill="#fff"/>
        <path d="M294.775 12.364c-.5 0-.766-.318-.769-.92L294 10.057a.03.03 0 0 1 .027-.03l.435-.041c.008-.001.016.002.023.008.006.005.01.012.01.021l.006 1.37c.002.3.117.454.343.454.018 0 .036 0 .055-.003.265-.026.399-.205.398-.534l-.006-1.37c0-.015.011-.027.027-.029l.436-.042a.03.03 0 0 1 .024.007c.006.006.01.014.01.022l.006 1.386c.002.372-.111 1.007-.892 1.082a1.494 1.494 0 0 1-.127.006zM296.261 12.166a.028.028 0 0 1-.02-.008.027.027 0 0 1-.009-.022l-.011-2.286a.03.03 0 0 1 .027-.03l.464-.032c.01 0 .02.003.026.011l.983 1.291-.006-1.344a.03.03 0 0 1 .028-.03l.375-.026c.009 0 .017.003.023.009a.028.028 0 0 1 .009.02l.011 2.288a.03.03 0 0 1-.028.03l-.385.026a.034.034 0 0 1-.026-.01l-1.062-1.4.007 1.458a.029.029 0 0 1-.028.029l-.376.026h-.002zM298.712 12.009a.029.029 0 0 1-.02-.008.03.03 0 0 1-.01-.021l-.013-2.28a.03.03 0 0 1 .028-.03l.5-.025a.03.03 0 0 1 .022.008c.006.005.01.013.01.021l.011 2.28a.03.03 0 0 1-.029.03l-.497.025h-.002zM300.553 11.932a.03.03 0 0 1-.027-.018l-.978-2.252a.029.029 0 0 1 .003-.028.028.028 0 0 1 .024-.013l.571-.018c.014 0 .024.008.028.018l.637 1.47.657-1.509a.03.03 0 0 1 .026-.018l.451-.013c.011 0 .02.004.025.013a.027.027 0 0 1 .003.028l-1.002 2.31a.03.03 0 0 1-.027.018l-.39.012h-.001zM302.323 11.889a.03.03 0 0 1-.03-.03l-.014-2.28a.03.03 0 0 1 .03-.03l1.838-.001a.03.03 0 0 1 .03.029l.002.444a.03.03 0 0 1-.008.02.032.032 0 0 1-.022.01h-1.28l.002.396.86-.002a.03.03 0 0 1 .03.03l.002.447a.03.03 0 0 1-.009.022.028.028 0 0 1-.021.008l-.86.001.001.428 1.297-.002c.016 0 .029.014.029.03l.002.447a.029.029 0 0 1-.029.03l-1.85.002zM305.296 10.552l.408.013h.053c.15 0 .238-.021.286-.069.038-.038.055-.098.055-.193-.001-.109-.022-.207-.27-.214l-.533-.016.001.48zm1.455 1.406h-.001l-.594-.018a.028.028 0 0 1-.025-.015l-.503-.86-.326-.01.004.829a.027.027 0 0 1-.01.021c-.004.006-.012.008-.021.01l-.501-.016a.03.03 0 0 1-.03-.03l-.01-2.287c0-.008.003-.016.009-.021a.03.03 0 0 1 .022-.009l1.262.038c.418.013.659.278.662.728.002.434-.232.614-.443.69l.53.905a.027.027 0 0 1 0 .03c-.004.01-.014.015-.025.015zM308.056 12.091c-.031 0-.063 0-.096-.003-.356-.018-.727-.24-.832-.307a.027.027 0 0 1-.014-.025l-.002-.527c0-.01.006-.021.016-.026a.03.03 0 0 1 .03.001c.322.214.629.352.803.362.164.008.273-.016.328-.07a.137.137 0 0 0 .039-.105c0-.051-.053-.101-.167-.157a3.165 3.165 0 0 0-.231-.102c-.358-.146-.85-.346-.852-.886a.597.597 0 0 1 .17-.443c.146-.146.381-.22.645-.206.31.017.679.174.852.277a.03.03 0 0 1 .015.025l.003.511a.029.029 0 0 1-.016.026.03.03 0 0 1-.031 0c-.107-.07-.48-.298-.824-.316-.122-.007-.182.026-.209.052a.093.093 0 0 0-.029.065c0 .055.055.111.168.172.068.036.154.072.246.11.353.148.837.35.839.836.001.217-.062.39-.188.515-.146.147-.369.221-.663.221zM309.897 11.17l.416.03-.205-.56-.211.53zm1.298 1.066h-.003l-.494-.037a.03.03 0 0 1-.026-.02l-.167-.46-.805-.059-.17.433a.03.03 0 0 1-.03.019l-.415-.03c-.009-.001-.019-.007-.023-.014a.029.029 0 0 1-.002-.027l.888-2.24a.032.032 0 0 1 .031-.02l.346.026a.03.03 0 0 1 .026.02l.871 2.369a.025.025 0 0 1-.003.027.03.03 0 0 1-.024.013zM312.971 12.399h-.003l-1.427-.13a.03.03 0 0 1-.026-.03l-.014-2.314c0-.01.003-.017.009-.023a.035.035 0 0 1 .024-.008l.431.04a.03.03 0 0 1 .027.03l.008 1.832.971.09a.03.03 0 0 1 .027.03l.002.453a.03.03 0 0 1-.009.022.03.03 0 0 1-.02.008zM304.527 6.317c-.242-.059-.508-.014-.5-.004-.026-.009-.076-.026-.104-.02a.026.026 0 0 0-.009.003.146.146 0 0 0 .017.007c-.017.006-.024-.002-.038-.005.009.012.007.01-.001.023l.003.005c.039.01.076.024.131.018v-.003c-.011-.011-.038-.013-.052-.024h-.005v-.003a.234.234 0 0 1 .09.039.052.052 0 0 1 .012-.007c-.01.014-.02.018-.015.033-.058-.009-.101-.03-.124.034l.019.017-.014.004-.003.016a.178.178 0 0 0 .066.044l.005.034c.007.006.007.005.016.003.013.012.004.021.011.029.016.02.076.05.09.069.005.005.001.017.011.024.021.014.047.023.066.04.007.003.002 0 0 .007.043.02.109.018.145.04.008.007.004.003.003.013l.113.03c.002 0 .006 0 .008-.002.003-.01.002-.01-.002-.019.022-.012.028-.037.044-.054-.008-.014-.011-.015-.008-.035.031-.004.04-.02.066-.027-.003-.015-.001-.018-.013-.024.007-.006.005-.003.016 0l.009-.008-.025-.022h-.006V6.59c.015.004.031.007.047.004.002 0 .004 0 .006-.003-.004-.003-.007-.008-.011-.013l.002-.002c.021.011.034.012.066.012.002-.007.005-.013.006-.02l.014-.002-.014.02.002.005c.065.015.109-.01.171-.02v-.016c.074-.021.179.024.251.018.021-.001-.264-.182-.562-.255zM301.268 12.347c.032.053.063.128.105.171.089.091.235.14.291.257l.08.078a.419.419 0 0 1-.005.037c.005.036.022.088.016.127-.002.018-.009.04-.008.06.003.011.007.023.009.036-.006.037-.022.075-.023.12-.011.005-.004.003-.019 0l-.002.04h.013l-.009.073.008.073c-.003.01-.019.014-.021.029l.006.027a.35.35 0 0 1-.029.122c-.015.03.001.06-.026.078.005.038.017.06.015.101-.011.003-.006.003-.02.003-.006.092.04.142.011.21.005.002.016.028.011.039-.022.06-.05.118-.055.189a.064.064 0 0 0-.008-.006v.037l-.024-.009-.003.003a.46.46 0 0 0 .051.147c-.003.058-.037.076.007.141v.012l-.014-.009c-.009.027.006.055-.002.086.009.012.02.014.036.02a.034.034 0 0 1 .008-.003.12.12 0 0 0-.012-.086l.006-.005.019.008h.002c-.001-.012.006-.01-.005-.011a.042.042 0 0 0 .005-.012l.015.018-.009.01c.013.01.02.04.003.047l.014.011c-.008.048.001.08.001.13h-.005c-.004-.015-.015-.056-.009-.06a.082.082 0 0 0-.039-.031.12.12 0 0 0-.015.05l.022.022-.003.039h-.019v.002l.008.017-.021.016v.011l.019.011.011-.01c.012.01.037.014.049.027l-.011-.003c.004.009.003.005.008.011l-.007.027c-.01-.005-.012-.009-.028-.01v.003l.009.008-.014.008c.015.027.018.067.036.09l.038.02a.091.091 0 0 0-.022-.005v.002l.009.033.013.006.012-.025.008.02h-.011a.017.017 0 0 0-.003.002c.011.016.013.024.014.046l.033-.01c.007.006.005.007.016.01l-.005.011-.027-.008-.003.005c.01.018.024.029.041.039a.053.053 0 0 0-.005-.011l.046.038v.003l-.044-.019c.019.023.034.03.056.036-.001.007 0 0-.003.007.021.022.11.08.134.074-.001.011.001.003-.002.012.026.024.11.055.15.065v-.002l-.019-.02c.03.01.049.002.069.02v-.012l.038.005h.002l.003-.005v-.007c-.075-.01-.099-.074-.159-.091a.08.08 0 0 0 .008-.01c-.017-.02-.039-.018-.054-.036l-.006-.003.008-.005.041.015v-.002c-.022-.028-.057-.047-.061-.093l.003-.006c.013-.003.026-.004.038-.008.011-.008.007-.024.005-.044.018-.012.055-.02.069-.035.004-.006.004-.024.002-.042-.045-.03-.111-.038-.096-.104a.075.075 0 0 1 .076-.01h.012c-.004-.011 0-.007-.009-.012.005-.012.008-.01.019-.013.002-.018-.004-.033-.008-.048.011-.016.021-.024.049-.025-.007-.013-.023-.015-.033-.024l-.006-.003.019-.009c.014.01.019.016.028.03a.175.175 0 0 0 .022.003l.008-.008c0-.017-.002-.024-.009-.033l-.005-.008-.03.003.013.01v.003l-.019-.005c-.008-.007-.009-.014-.027-.02-.01-.016-.01-.048-.017-.07.02-.024.067.027.096.035l.065-.003.014-.031-.011.005-.011-.01c.013-.02.032-.04.021-.067l.011.006h.003a.394.394 0 0 0-.006-.016c.04.016.215.04.263.013.011-.006.053-.057.068-.069v-.039c-.023-.008-.034-.009-.036-.039a.218.218 0 0 0 .022-.02c-.011-.047-.061-.053-.083-.09l.011-.014.008-.004c.007.012.015.016.019.031a.718.718 0 0 1 .053.012c.015.01.034.043.055.047.016.003.029-.008.047 0 .013.006.022.022.044.019.055-.006.065-.032.098-.055l.057-.025.044-.055.109-.047c.043-.029.066-.08.106-.111.051-.04.114-.046.134-.117a.039.039 0 0 1-.011-.002c.007-.027.009-.063.024-.1.012-.03.205-.127.255-.113l.033.025.005-.018-.011-.004v-.003c.025-.006.05-.043.074-.035.009-.008.009-.005 0-.014v-.008c.052 0 .15.02.199.043.004-.007.004-.007.014-.01-.003-.043.049-.027.081-.042.021-.016.023-.067.055-.082.052-.026.049-.042.085-.066.016-.01.031-.009.041-.024.037-.06.012-.086.088-.113.013-.041.023-.073.046-.103l.036-.04c.013-.037.005-.067.019-.1.015-.036.046-.059.049-.105.034-.017.064-.011.096-.034l.141-.122.049-.01.064-.05c.075-.048.137-.091.167-.186l.003-.056c.008-.034.049-.26.048-.26-2.124-.004-3.699.022-3.699.022zm1.888-5.898c.034.005.08.01.118.027.038.017.047.041.089.048-.009.006-.014.002-.028 0 .01.016.02.025.044.028l-.011.006c.011.01.018.017.033.024h.011c-.004-.011-.001-.008-.01-.014v-.002c.079.026.152.081.243.095.004-.012-.002-.005.011-.007V6.65a.374.374 0 0 0-.133-.092c-.002-.003-.002-.006-.003-.01l.052.028v-.011c.049.029.106.064.156.092a.128.128 0 0 1 .013-.002h.005l.001-.003c-.018-.011-.027-.01-.038-.027a.157.157 0 0 0 .022.008h.003c0-.01-.002-.01-.009-.02l.003-.005c.007.004.005.002.009.01.016-.002.011-.003.019-.013.004.01.005.01.013.016h.003l-.005-.01h.019l.001-.005c-.017-.01-.031-.021-.053-.028l-.003-.005.017-.002V6.57c-.015-.013-.064-.051-.098-.046 0-.016-.008-.037-.027-.042h.022l.003-.005-.011-.01c.036.002.067.03.099.032-.012.036.059.046.084.065.018-.002.017-.008.03-.01l-.007-.006c.003-.008.001-.004.008-.01.014.006.027.011.041.004v.01a.28.28 0 0 0 .019 0 .073.073 0 0 1-.008-.01c.008-.004.001-.002.011 0a.196.196 0 0 1 .008-.002.12.12 0 0 0-.011-.016.1.1 0 0 0 .055 0c-.007-.022-.037-.031-.065-.03-.004-.006.002-.003.008-.006l-.027-.002c-.01-.004-.017-.02-.047-.021.006-.006.001-.003.011-.006a.09.09 0 0 0-.052-.021l-.005-.006.011-.004c-.029-.006-.036-.014-.055-.005-.017-.012-.015-.02-.044-.023a1.73 1.73 0 0 0 .006-.008l-.066-.016v-.003a.125.125 0 0 1 .017-.003c.001-.01.002-.007-.003-.015l.061.015c.002 0 .003-.003.005-.004a.066.066 0 0 0-.049-.02.073.073 0 0 0 .003-.007l.03.008.003-.002v-.008c-.024-.018-.03-.018-.068-.017.008-.01.011-.008.027-.01l.001-.002c-.029-.02-.07-.01-.099-.027 0 0-.025-.03-.03-.031a.418.418 0 0 0-.103-.027l.006-.008c-.027-.012-.053-.02-.082-.033h.022v-.003c-.013-.02-.137.031-.161.062-.008-.005.051.046.035.043l-.006.007h-.005c.008.013.065.01.079.01l.003.006c-.011.006-.014-.003-.028 0h-.005c.008.02.025.015.043.008l.009.021c-.012-.005-.019-.005-.036-.005.006.018.039.021.062.024l.003-.011-.027-.005a.981.981 0 0 1 .003-.016c.017.005.024.015.046.019l.013.04-.129.015a.47.47 0 0 1-.003.005l.027.027v.002c-.03-.009-.063-.001-.091-.006-.06-.01-.105-.041-.165-.006l.003.008c.017.03.069.019.104.023zm-1.805 1.924c.02.016.079-.017.107-.017.013.017.039.082.054.085.023.051-.04.078-.034.117l.005.002c.012-.009.01-.009.007-.021a.016.016 0 0 1 .005-.003c.005.015-.001.012.014.013l-.031.023c-.004.011.003.038.005.062l.014.006a.058.058 0 0 0 .005-.012l.003.006c-.01.013-.011.019-.019.033.007 0 .004 0 .011-.003.006.01.009.015.005.03.002.042.045.042.025.086.015.022.064.008.076.01 0-.035.044-.07.058-.103.019-.042.001-.1.001-.153l.017-.006c-.006-.038-.013-.077-.018-.116.013-.148.133-.185.252-.22.056-.017.035-.065.138-.044.026-.049.112-.04.163-.052l.003-.005c-.01-.007-.008-.004-.013-.016v-.003a.18.18 0 0 1 .071-.016l.015-.021c-.009-.014-.029-.021-.05-.022v-.004l.053.009v.022a1.27 1.27 0 0 0 .009-.086l-.017-.005c-.008-.006-.001-.002-.002-.014-.001-.011.019-.039.028-.05-.008-.007-.001-.051.001-.065l.039-.034c-.032.044-.016.044-.026.095a.458.458 0 0 1 .025.009c-.016.013-.033.02-.042.04l-.003.005c.005.004.003.004.014.006.015-.033.08-.056.109-.102-.018-.018-.01-.029-.016-.053.012.012.018.021.038.027l-.011.013v.002c.043.006.1-.049.12-.078-.003-.011 0-.006-.008-.012l-.002-.005c.049-.006.12.008.174.002l-.013-.016c-.042.006-.079-.011-.12-.002.049-.038.198.016.264-.009.008.018.023.016.055.018l.012-.017-.009-.013c-.006.015 0 .015-.016.015-.008 0-.015-.002-.023-.003-.004-.016.002-.038-.027-.043V7.66a.856.856 0 0 1 .04-.01l-.011-.016c.018-.023.057-.035.075-.052a.145.145 0 0 0 .114-.016c.007.008.006.006.006.016.053-.004.104 0 .161-.015l-.008-.016c.006 0 .035.01.044.012.042.008.124 0 .159-.012l.005.006-.039.01a.01.01 0 0 0-.002.005c.014.002.029.006.043.01-.053.007-.105.016-.158.024l-.003.005.02-.005-.011.005c-.014.017-.018.017-.018.045h.017c.011.016.004.025.025.026.038.001.074-.024.117-.026.005-.012 0-.013.014-.018l.006.008.01-.01c.004.017.012.017.028.022.024-.024.171.006.215-.006h.005c-.008-.009-.015-.011-.033-.012.007-.004.009-.002.014-.01.034.012.071.004.116.005v-.009c.003-.016-.022-.03-.041-.03v-.004l.023-.026c-.007-.01-.006-.004-.006-.016l-.017-.003c-.027.014-.09.028-.092.066-.019.003-.029.002-.03-.02-.064.007-.089-.025-.142-.031a.098.098 0 0 0-.011-.014h.011l.003-.005a2.594 2.594 0 0 1-.049-.02c-.009-.006-.018-.032-.025-.044a.406.406 0 0 1 .014-.01c-.008-.007-.015-.009-.03-.01v-.004c.029-.005.042-.02.069-.03l.006-.01V7.41c-.029.009-.053.004-.094.003-.006-.02-.02-.027-.042-.03a.065.065 0 0 1-.003-.006c.038.004.051.02.083.023a6.79 6.79 0 0 0 .087-.01v-.008c.009-.006.001-.006-.003-.016l.011.003v-.003c-.067-.09-.305-.058-.408-.04-.04.008-.069.046-.125.046.024-.023.17-.077.215-.091 0 0 .092.006.097.005l.025-.026c.038-.02.093-.012.142 0 .065.018.124.025.188.047.039.013.159.061.199.055a.357.357 0 0 0 .09-.027c.067-.027.201.042.247-.009.003-.009.002 0-.003-.013l.005.003c.009-.013 0-.057.009-.072l-.046-.018c0-.007 0-.001.002-.01-.028-.003-.03-.01-.049-.009-.006-.03-.035-.043-.069-.047v-.003l.072.008c-.013-.018-.044-.02-.047-.039-.023-.005-.043-.001-.062-.013-.009-.007-.007-.008-.007-.016-.012-.009-.042-.006-.053-.015-.012-.011-.014-.021-.033-.029-.003-.011-.007-.004.003-.013a.21.21 0 0 0-.071-.044c.007-.008.004-.005.013-.006.002-.006.002-.021.003-.042l-.019-.008c-.002 0 .006-.015.006-.032-.025-.01-.052-.02-.049-.049h-.014c-.016-.025-.08-.105-.078-.131-.068.018-.154.125-.247.052-.015.001-.026-.022-.054-.028-.002-.007-.002-.015-.003-.023l-.019-.003c.008-.022.016-.025.014-.055a.19.19 0 0 0 .031-.012l-.008-.013-.025.01c-.018-.02-.058-.029-.091-.038a.009.009 0 0 0-.002-.005v-.003c.006-.005.004-.004.014-.005v-.003a.358.358 0 0 0-.092-.06l-.069.001c-.058-.019-.111-.041-.17-.039a.253.253 0 0 1-.017.015l-.003.01c.005.007.004.007.014.01-.012.016-.027.022-.051.027.022.025.007.027.019.044a.288.288 0 0 1-.1.035l-.009.015c.035.012.065.037.067.081-.03.063-.096.074-.176.087l-.085.003h-.005c.002.012-.002.027.015.033-.015.028-.045.062-.025.094-.014.01-.034.025-.053.025v.024a.035.035 0 0 0-.011.003c-.001-.01-.006-.01-.011-.022-.022.003-.035.013-.049.022-.01-.005-.019-.01-.028-.013-.009-.044-.037-.07-.055-.11.014-.012.026-.022.037-.038l-.003-.021c.016-.016.033-.023.045-.045a.72.72 0 0 1-.253-.086c-.012-.01-.014-.035-.031-.048a2.853 2.853 0 0 1-.076-.035l-.086.002h-.005c.02-.02.033-.05.049-.074a.12.12 0 0 0-.057-.008v-.012a.521.521 0 0 1 .301-.121.066.066 0 0 1-.011-.012c.027.002.056.005.085.001.01-.013.008-.013-.002-.025h-.006v-.002c.043.013.188.01.254-.023.009-.006.003-.002 0-.01l.086-.018h.005V6.31c-.005-.004-.008-.005-.019-.007l-.002-.005.057.005c0 .014.041.04.059.045.006-.006.001 0 .004-.007l.002-.003c-.007 0-.003 0-.011.003-.005-.01-.006-.012-.019-.02v-.003l.028.013-.003-.023.033.022v-.007c.047-.012.091-.01.126-.02l-.021-.023a1.206 1.206 0 0 0-.557-.139c-.194.004-.892.241-1.443.518a4.253 4.253 0 0 0-.765.495c-.169.146-.33.324-.415.542l-.029.033c-.008.015-.056.14-.056.145.008 0 .016.002.023.003-.005.036.018.037.008.083-.015.065-.061.145-.082.217-.004.015-.02.051-.016.07.005.025.015.058.005.09l-.031.053c-.013 0-.018.003-.031 0h-.003c-.004.037.01.059.008.09.008 0 .005 0 .012-.004a.143.143 0 0 1-.031.16c.013.054.041.084.031.167v.002l.006.002c.049-.051.036-.045.041-.11l-.005-.018a.127.127 0 0 0-.013.015.005.005 0 0 1-.003.002c-.007-.043.036-.148.045-.193.006-.028-.01-.079-.003-.113.019-.08.028-.256.096-.307a.125.125 0 0 0 .01.018.096.096 0 0 0 .01-.007c.014.048-.045.118-.037.181a.093.093 0 0 0-.031.035l.008.007a.154.154 0 0 1 .015-.016c0 .016-.009.067.007.083.005.006 0 .003.009.001l.004.005c-.008.018-.016.028-.015.056.005.005.003.005.013.006l-.008.034.013-.001c0 .036-.014.047-.032.072.005.033.02.041.034.066-.01.011-.01.018-.013.035.026.035.06.275.01.31-.012.018-.013.014-.006.03-.008.013-.013.012-.025.016-.039.092.044.117.046.192l.018.012s.306-.01.488-.014c.007 0-.014-.007-.023-.014a.953.953 0 0 1-.037-.217.39.39 0 0 0 .019-.03c-.027-.057.014-.117.038-.17l.056-.135c.017-.022.051-.016.062-.054.006-.027-.006-.05.008-.083.012-.03.045-.04.042-.077.018.002.049-.012.052-.027l.008-.014c.001.011.001.007-.003.017.014-.007.008-.008.016-.007a.139.139 0 0 0 .011-.015l-.008-.012c.048.005.083-.014.123-.037.025.006.016-.012.014-.026.006-.007.013-.01.022-.015l.002.003-.01.011.01.005c.012.01.055-.014.081-.011.026.002.08.023.1.034h.008v-.011l-.019-.002-.003-.008a.247.247 0 0 0 .022-.007c.003.01.018.026.027.036a.022.022 0 0 0-.005.003l-.006.009.027.02.038-.016a.126.126 0 0 0 .005.019c.019-.006.02-.016.032-.027.012.012.02.029.035.036a.033.033 0 0 1 .008.005h.004l.01-.014a.44.44 0 0 1-.026-.026l-.006-.005c.008-.01.014-.012.03-.015.005-.01.004-.01.003-.025l-.022.013h-.002l-.006-.008c.042-.027.092-.02.136-.012l.008-.02.009-.006-.001.035c.062.008.107-.016.152.032.012.012.011.032.016.037z" fill="#fff"/>
        <path d="m303.22 6.308-.037.013a.675.675 0 0 1-.003.013v.003c.02.01.079.023.106.008a.163.163 0 0 0 .016-.015V6.32c-.026-.006-.046-.013-.082-.013zM303.364 6.317c.005.006 0 .002.009.006l-.009-.006zM302.914 6.425a.095.095 0 0 0-.049-.01l.009-.02c-.022-.014-.065-.026-.079-.046-.01-.01.001-.023-.015-.03a1.292 1.292 0 0 1-.006.007c-.05-.005-.108.02-.123.054-.025 0-.049 0-.062.01.014.01.052.007.071.008l-.012.007a.113.113 0 0 0-.008.016.238.238 0 0 0 .132-.021l.046.013a.157.157 0 0 0-.014.005c.026.022.071.022.121.02a.382.382 0 0 1-.011-.013z" fill="#fff"/>
        <path d="m302.777 6.342-.009-.009a.068.068 0 0 1-.005.016l.02-.007h-.006zM303.51 6.433c.01-.006.007 0 .005-.01-.035-.002-.029-.016-.055-.022l-.02.01c.005.012.005.013-.001.023.037-.001.048.001.081.008l-.01-.01zM303.742 6.41l-.003.005h.005l-.002-.005zM303.524 6.43c.005.006 0 .002.009.006l-.009-.006zM302.733 6.44c-.015.006-.031.01-.045.014l.002.018c.042-.004.081-.002.118-.013l.002-.005a3.644 3.644 0 0 0-.077-.013zM303.043 6.444v.008h.021V6.45l-.021-.005zM303.445 6.487c-.007-.016-.028-.025-.046-.03l.001.018h-.025l.003.005a.342.342 0 0 1 .072.015l-.005-.008zM302.995 6.459l-.003.005.02.016.026.003.002-.003.001-.008-.046-.013zM303.084 6.467l-.028-.005c.005.012.013.014.022.02h.011a.028.028 0 0 0 .003-.004c-.003-.004-.005-.008-.008-.01zM302.885 6.49l-.028.01-.006.01.008.014c.021.003.032-.009.051-.013a.132.132 0 0 0 .009-.012c-.01-.005-.016-.009-.034-.01zM303.302 6.505v.006c.003-.001.006-.003.01-.003v-.003h-.01zM303.176 6.525c.005.008.012.009.022.013h.011a.072.072 0 0 0-.033-.013zM304.536 6.586c.005.006 0 .001.009.006-.005-.006 0-.002-.009-.006zM302.897 6.567l.005.005h.018V6.57l-.023-.002zM305.59 6.773c-.021.006-.031-.008-.049-.02l-.014.003.009.008c-.031.007-.068-.013-.099-.021-.002 0-.002.002-.003.002a.058.058 0 0 0 .005.012c-.013-.01-.024-.02-.044-.024v.003l.017.017v.002c-.015-.004-.012-.007-.022.002-.032-.026-.057-.06-.11-.065l.014.014-.023-.009a.195.195 0 0 0-.021.018l-.003.005.107.027c-.017.012-.036.007-.066.002l-.003.003a.777.777 0 0 1 .003.005c.05.012.07.026.105.043l.002.006-.027-.007a.675.675 0 0 0-.003.003.068.068 0 0 1 .005.011c.075.02.258.11.321.039v-.003c-.032-.021-.08-.052-.101-.076zM303.389 6.646v.007l.006-.007h-.006zM303.645 6.661c.005.008.003.007.014.01v-.003c-.006-.005-.004-.004-.014-.007zM303.709 6.674l-.022-.006c-.005.01-.001.008-.02.008l-.001.002c.008.01.022.019.037.023a.171.171 0 0 0 .014-.01l-.008-.017zM303.493 6.69l-.014-.003a.02.02 0 0 0-.008.006l-.006.007c.01.008.025.006.039.003l.003-.004a.193.193 0 0 0-.014-.009zM307.769 9.044l-.04-.084.008.012c.002 0 .003.002.005.003v-.006c.004-.013-.013-.03-.021-.042l.005-.002.02.02h.002l-.014-.033.03.03c-.013-.03-.049-.092-.081-.105.005-.011 0-.007.011-.004-.009-.035-.062-.066-.068-.119h.003c.005.03.026.022.038.034h.003l-.032-.046.016-.013c.013-.008.022.02.04.02l.005.026a.261.261 0 0 0-.006-.087c-.014-.016-.024-.04-.036-.061a1.227 1.227 0 0 1-.103-.205 3.825 3.825 0 0 0-.578-.706c-.331-.307-.73-.523-.725-.524-.008.01-.014.018-.029.022.002.017-.002.017.006.028-.009.003-.014.007-.024.012.01.015.023.024.033.036l.006.028c.025.038.077.057.098.103.013.003.012 0 .021-.007l.012.034c.014.017.086.058.113.041.012-.007.014-.026.008-.042l.016-.008-.006-.012v-.003c.077.036.115.131.197.164l.011.028c-.012.005-.015.013-.021.022.015.02.033.036.058.047-.008.01-.006.005-.02.001l.001.003c.006.01.011.013.022.019h.015v-.02c-.007-.007-.016-.024-.03-.03 0-.009-.001-.002.006-.01l-.017-.018c.015.008.024.02.031.035l.033.001h.002V7.62l-.022-.027c.004-.007.003-.003.002-.012.01 0 .021.002.03.004l-.011-.021c.005.004.116.102.11.106-.015.007-.012.015-.008.03a.384.384 0 0 0-.013.005c-.018.022-.024.001-.046 0-.009-.01-.005-.004-.003-.014l-.025-.021v.015l-.016-.004c.003.016-.004.01-.008.03l-.013-.003c-.006-.006-.009-.02-.009-.026-.006-.006-.004-.005-.014-.008l.006.01c-.022 0-.039-.018-.055-.03-.006-.002 0-.002.003-.006a.04.04 0 0 0-.025-.011l-.003-.005.003-.005.055.032c-.011-.023-.037-.06-.066-.05-.007-.009-.01-.029-.017-.04a.038.038 0 0 0 .011.006l.002-.013c-.026-.029-.061-.044-.075-.085l-.016.008.006.022h-.012c-.003.002-.009.004-.012.007.009.048.108.122.102.144a.184.184 0 0 1 .019.005c.012.018.024.03.037.05-.011.004-.007-.002-.006.015-.016-.006-.019-.008-.041-.007v.013l-.037.003-.006.012.011.019c.011.005.009.005.02.001.006.015.012.018.011.031-.008.01-.002.006-.014.003h-.003c.003.018.003.022.012.033a.418.418 0 0 0-.022-.003l-.028-.081a.019.019 0 0 0-.006-.003h-.002c.008.036.039.094.017.114-.014.014-.042.016-.054.032l.022.05c-.008.01-.014.012-.029.015-.007.01-.014.018 0 .027a.06.06 0 0 0-.008.008c-.034.007-.072-.023-.097-.032l-.002.003c.015.023.036.036.044.065l.009.007v.003c-.022-.003-.035-.006-.05.006-.01-.009-.022-.017-.033-.025-.018.01-.048.006-.063.022h-.005c.004.023.021.02.036.032-.006 0-.012.002-.017.003.029.026.073.02.113.034.002 0 .131.12.132.126l-.014-.01-.002.002a.33.33 0 0 1 .068.194c-.048.017-.159-.014-.221-.022-.017-.001-.058.017-.083.009-.012-.005-.018-.015-.037-.01-.014-.004-.022.013-.016.026-.013.004-.03.006-.035.015a.04.04 0 0 0-.011.007c0 .028.017.026.021.047.008-.002.006-.002.014-.006.006.047.034.08.049.124a.545.545 0 0 1-.002.193c.013.01.019.018.03.031l.016-.01a.308.308 0 0 1 .023.132c.025-.01.057.006.071 0 .01-.002.014-.014.031-.018.047-.02.07.09.121.1.01-.01.05-.049.053-.058.037 0 .063-.006.093.004l.006-.012c.014.002.016.003.024.01.008-.019.016-.053.023-.069.009-.004.013-.005.03-.005.001-.016-.011-.04-.001-.068.004-.016.017-.017.022-.037-.084-.056-.009-.127-.032-.171.016-.02.029-.014.049-.028.012-.009.025-.035.036-.046-.005-.03-.051-.073-.041-.105.004-.009.017-.015.022-.026.042.014.068.032.105.045.018-.016.013-.048.047-.053l.007-.037V8.38c.074.012.117.113.155.164 0 0 .102.098.106.1.003.002.014-.004.025.003l.018.032c.08.073.103.095.137.208-.008.005-.025.007-.032.02-.027 0-.027-.004-.044-.017-.004.005-.003.003-.005.013l-.011-.009h-.002c-.002.012-.004.025.002.036.005.009.104.087.116.093h.003c-.006-.042-.027-.063-.027-.114l.016.013h.002a.108.108 0 0 0-.007-.067c.002-.015.001-.011.011-.016-.009-.034-.026-.038-.043-.061a1.45 1.45 0 0 0-.017-.063c.003-.001.005-.003.006-.005.012.018.043.05.06.06-.015-.058-.073-.109-.125-.134-.006-.01-.007-.018-.007-.036-.017-.009-.03-.002-.046-.016-.04-.032-.057-.082-.089-.123-.027-.034-.078-.048-.091-.096l.003-.018c-.006-.015-.022-.018-.027-.038.015-.002.014-.007.021-.017l.011.001c.01.013.03.051.037.069.002 0 .005.001.006.003l.002-.018c.006.009.01.018.014.028l.008.006-.01-.025c.025.009.035.053.048.068.019.025.049.038.067.056a.087.087 0 0 1-.01-.004c.007.013.012.017.018.027l.014.002-.014-.013a.479.479 0 0 0 .005-.002.16.16 0 0 1 .017.012l.002.006-.016.004c.012.012.01 0 .024.008.03.014.079.065.098.094.014.04.03.079.045.119.018.034.06.069.075.105.008 0 .001 0 .008-.002.001.003-.006.015 0 .027.008.012.024.028.043.031-.004.015-.005.011-.005.033.019.026.038.052.048.088a.026.026 0 0 1 .008.006h.003l-.005-.02.003.001.019.042.005.003-.005-.023.016.02h.002zM302.501 6.897a.14.14 0 0 0-.056-.013l-.015.005c.009.016.051.03.07.034h.003c.003-.012.001-.016-.002-.026zM303.858 6.977c.005.01-.002.003.009.008h.003l.003-.005-.015-.003zM304.004 7.107a.967.967 0 0 1 .009.008v-.003l-.009-.005zM303.913 7.154l-.02.005c-.003.018-.003.005-.008.016.038-.002.075-.008.109-.01a4.897 4.897 0 0 0-.081-.011zM304.092 7.21c0 .007-.002.003.003.01a.049.049 0 0 1 .009-.005v-.003a.054.054 0 0 0-.012-.003zM303.517 7.298l-.003.006c.063.038.106.072.189.097a.036.036 0 0 1 .006-.003v-.007a.357.357 0 0 0-.192-.093zM304.21 7.342l-.003.009c.011-.005.004.002.009-.008h-.006z" fill="#fff"/>
        <path d="M306.539 7.857c-.013 0-.026-.002-.038-.003.005-.012.02-.03.015-.047-.006-.027-.055-.08-.085-.046l-.009-.003a.241.241 0 0 0-.086-.103l-.05-.02c-.045-.043-.066-.076-.134-.077l.022-.015a.079.079 0 0 0-.014-.011c.011-.022-.002-.039.002-.06-.024-.024-.07-.018-.103-.011 0-.016.006-.01-.008-.016.004-.012.009-.02.019-.026l-.006-.018c-.028-.006-.056.006-.083-.003-.006.008-.005.01 0 .019-.004.01-.003.012.006.023l-.006.003c-.009-.001-.004-.003-.01.005l.016.027v.003l-.036-.027-.011.017a.114.114 0 0 0 .059.025l.006.011a.177.177 0 0 0-.014.008c.006.014.01.014.008.03l.028-.004.003-.013V7.52h.002c.005.03.021.05.029.081h.011l.003-.005a.381.381 0 0 0-.006-.014l.017.01h.003l-.009-.025.023.015c.006.012.006.024 0 .04a.377.377 0 0 1 .025.02h.004a.093.093 0 0 1-.007-.01V7.63l.026.01v-.01c.018.006.025.002.038-.009.019.023.011.06.056.052.001.023.006.03.014.044-.021.018-.043.006-.066.001.003.018.009.015.02.024a.074.074 0 0 0-.011.014l.003.004a.403.403 0 0 1 .021-.008l.023.029c-.003.017-.017.024-.035.027l-.009.008.029.023c.029-.015.055.004.088.015l.022-.01c-.004.009-.003.008-.002.019h-.056c0 .024-.016.051-.038.072v.005c.015.001.016 0 .031.008.007-.011.003-.02.024-.025.015-.004.03.005.044.008.001-.01-.002-.027.006-.032 0 0 .087.007.091.009h.008l-.006-.014c.042.002.063.001.096-.016l.003-.005-.006-.016zM304.375 7.663c-.013-.003-.015.009-.039.012a.04.04 0 0 0-.002-.01.063.063 0 0 1 .03-.024c.002-.001.002-.003.003-.005l-.003-.003c-.034.002-.041.01-.061.024l-.005-.011c-.007-.002-.002.002-.008-.003.019-.017.058-.027.066-.035l.006-.005c-.012-.01-.041-.009-.061-.01.006-.018 0-.005-.003-.028.016-.003.022-.005.031-.015-.018-.016-.048-.033-.072-.028-.011-.01-.002-.018-.019-.025-.008.004 0 .005-.009.003-.002.007-.003.004.003.01h-.017c-.016 0-.01.001-.008-.014-.014.002-.008-.001-.011.007-.01-.005-.016-.009-.028-.008l.006-.009c-.011-.005-.004-.003-.014 0-.001-.003-.004-.004-.006-.006v-.01l.033-.002v-.003c-.016-.012-.035-.012-.052-.026l-.05.02c.008-.028.056-.053.083-.059l.012-.013c-.008-.006-.008-.008-.022-.01v-.004c.014.003.024.008.039.006l.005-.004.003-.008-.044-.013h-.05c-.011.003-.04.02-.056.028-.03.014-.042.052-.081.06-.005.011-.005.008 0 .02v.002c-.011-.002-.008 0-.014-.005-.017.003-.027.015-.036.027a.1.1 0 0 0 .017.014c-.024-.004-.052.01-.079.014l.006.026c.045.012.232.05.247.065h-.011l.055.021c.005-.005.004-.003.006-.013l.036.015a.197.197 0 0 1-.086.013c-.002.003-.002.006-.003.01.058.022.105-.005.155-.02l.012.014c-.001.023-.014.03-.028.04.004.01.002.008.011.013l.038-.011a.062.062 0 0 0-.008.032c.015.004.027.005.041.01.021-.01.027-.031.046-.044l-.004-.022zM305.936 7.409a1.31 1.31 0 0 1-.015-.003.308.308 0 0 1-.023.02c.008.01.014.013.015.022l.008.006a.696.696 0 0 1 .021-.017.14.14 0 0 1-.006-.028z" fill="#fff"/>
        <path d="M304.183 7.4v.006l.006-.006h-.006zM305.921 7.457l-.011-.005-.011.005c.01.01.016.019.024.033a.1.1 0 0 1 .008.002.528.528 0 0 0-.01-.035zM304.18 7.411l.008.01c.002-.003.004-.003.007-.004v-.003c-.006 0-.01-.002-.015-.003zM306.614 7.5l.006.009h.002c-.005-.01.002-.003-.008-.009zM305.971 7.49a.12.12 0 0 0 .009.012l.003-.005-.012-.006zM305.922 7.494V7.5c.002-.002.005-.002.008-.003v-.003h-.008zM305.978 7.515l-.003.003v.003l.003.002h.003c0-.002.001-.006.003-.008h-.006zM305.966 7.523v.009h.006c-.004-.01 0-.004-.006-.01zM303.907 7.475h-.016a.015.015 0 0 0-.007.002l-.003.008.04.004-.014-.014zM304.271 7.504a.066.066 0 0 1-.004.012h.025c-.006-.012-.005-.01-.021-.012zM306.034 7.546c-.007.011-.008.015-.022.02.005.015.008.01.02.018.008-.007.011-.027.002-.038zM306.014 7.549l-.002.003v.002a.25.25 0 0 1 .006.003l.002-.003-.006-.005zM303.506 7.523c-.01-.006-.005 0-.008-.015-.013-.012-.007-.007-.003-.024-.003 0-.005-.002-.008-.003l-.031.013-.003.005a.27.27 0 0 0 .098.057c.009.005.003 0 .005.008.007.008.011.01.023.015.025-.005.021-.018.059-.017l.002-.003v-.003c-.018-.008-.134-.033-.134-.033zM306.073 7.567h-.007v.011a.092.092 0 0 1 .013-.003l-.006-.008zM306.091 7.692l-.002-.006c.017-.006.016-.013.027-.02v-.012c-.019-.02-.037-.02-.054-.045-.02-.01-.036-.006-.053.007.002-.006.001-.003.006-.011a.317.317 0 0 1-.026-.01c-.007.009-.023.013-.041.015-.003.018-.003.018-.012.03.011.009.022.007.035.004-.006.014-.011.01-.012.023h-.076c.002.016.005.007.012.016l-.008.004c.01.01.02.01.036.008l-.02.021c.023.029.041.012.074.02-.019.013-.013.013-.014.032-.012.012-.011.007 0 .016-.007.013-.005.005-.002.02l-.023-.002-.006.015.031-.005a.225.225 0 0 1-.019.012c.033.08.15-.023.202-.021-.003-.036-.018-.093-.055-.111zM304.306 7.568a.024.024 0 0 1-.002.008l.008-.002-.006-.006zM306.811 7.633l.006.014a.383.383 0 0 0 .02.007c-.007-.013-.011-.016-.026-.021zM303.23 7.573a.045.045 0 0 1-.008.01l.005.004c.008-.007.007-.002.012-.014h-.009zM303.436 7.584l-.003.011.009.006.051-.007a2.305 2.305 0 0 1-.057-.01zM306.16 7.655l-.005.018.002.008.015-.004.003-.008-.015-.014zM303.055 7.576c-.002.01-.002.007.003.014l.006-.005-.009-.009zM303.733 7.605h-.006l-.002.006c.008-.001.014.003.008-.006zM303.072 7.588v.005a.015.015 0 0 1 .005-.005h-.005zM303.726 7.613l-.014-.001a.56.56 0 0 1-.017.01l.033.003v-.003l-.002-.009zM304.081 7.628l.006.012.005-.006-.011-.006zM304.26 7.639c-.005.002-.008.005-.012.008a.186.186 0 0 0-.003.008h.009l.015-.007v-.01h-.009zM303.263 7.611c.005.003.001.003.006 0h-.006zM304.081 7.64l-.003.007.009.003a.031.031 0 0 0 .006-.003.141.141 0 0 1-.012-.006zM304.092 7.65v.005l.005-.005h-.005zM306.861 7.723l.017.01V7.73c-.006-.006-.006-.003-.017-.007zM306.667 7.743l-.003.005c.009-.002.003 0 .009-.005h-.006zM306.637 7.757l-.004.006a.01.01 0 0 1 .004.002l.005-.005v-.003h-.005zM306.631 7.775l.001.008h.005c-.004-.008 0-.003-.006-.008zM302.902 7.69v.006l.006-.005h-.006zM302.798 7.702a.02.02 0 0 1-.002.008c.004-.006.005-.001.002-.008zM302.848 7.725c-.004 0-.009.003-.015.005v.005c.011 0 .019.002.029.003v-.003c-.006-.008-.003-.007-.014-.01zM302.696 7.727l-.006.003v.002l.015-.005h-.009zM302.767 7.728c.005.003.001.003.006 0h-.006zM302.734 7.73a.069.069 0 0 0 .006.006h.003c-.005-.006 0-.002-.009-.006zM302.884 7.744l-.003.006c.005 0 .01.003.014.005h.004l.002-.005c-.006-.005-.005-.005-.017-.006zM299.81 7.933c-.01.031-.022.052-.027.081h.002c.014-.023.045-.047.025-.08zM299.765 8.034c.009-.006.004-.004.005-.01a.042.042 0 0 1-.005.01zM302.281 8.077l-.002.006h.008l-.006-.006zM299.717 8.252l-.008.04.002.005h.004l.01-.041-.008-.004zM307.236 8.327l.009.012V8.33l-.009-.003zM300.761 8.278l-.005.012c.005-.006.007-.004.005-.012zM301.019 8.273c-.01.008-.018.01-.023.024.019.001.03-.001.047 0v-.003l-.024-.021zM300.685 8.311l-.005.009.01-.007-.005-.002zM307.369 8.502v.01h.005c-.004-.01 0-.004-.005-.01zM307.153 8.49a.447.447 0 0 1 .009.02.102.102 0 0 0-.017.01c.001.035.025.08.048.094l.006.005h.003c-.001-.04-.021-.113-.049-.128zM307.194 8.505c-.002 0-.004 0-.006.002v.008l.014.002c-.004-.01-.002-.007-.008-.012zM299.584 8.666l-.003.006a.199.199 0 0 0 .009.01h.002c-.001-.014.001-.011-.008-.016zM307.285 8.808a.417.417 0 0 0-.07-.174l-.008-.004-.006.025c-.011.006-.007.007-.022 0 .002.033.035.063.046.089.01.02.002.045.008.06.012.007.014.016.036.02-.002-.007-.002-.016-.003-.023.006 0 .007.002.016.007h.003zM307.651 8.695v.012c.002.002.006.003.008.006-.002-.013-.002-.01-.008-.018zM307.675 8.717l.005.011h.004c-.005-.01 0-.006-.009-.011zM307.656 8.745l.006.015-.011-.01c.003.006.006.012.011.018l.009-.007-.015-.016zM307.686 8.758v.008a.055.055 0 0 0 .011.01v-.012l-.011-.006zM307.591 8.785l.012.015c-.003-.007-.004-.009-.012-.015zM307.712 8.842v.008l.012.007-.012-.015zM306.373 8.8l.003.015.003-.016h-.006zM307.644 8.88v.022l.009.01.008.003a.01.01 0 0 1 .002-.005.511.511 0 0 0-.019-.03zM307.696 8.896l-.011-.004.025.024.005-.005a.203.203 0 0 0-.019-.015zM307.664 8.926a.223.223 0 0 1 .003.012l.011.01v-.013l-.014-.01zM300.235 8.93v.022h.011v-.004c-.003-.009-.004-.013-.011-.019zM307.766 9.053l.008.018a.016.016 0 0 1 .004-.006l-.012-.012zM303.804 13.687l-.003.011.015-.011h-.012zM303.717 13.691c-.002.003-.006.004-.009.006l.007.006h.014V13.7a.237.237 0 0 0-.012-.009zM303.738 13.694v.006l.006-.006h-.006zM303.3 13.958l-.002.01c.005-.007.002 0 .005-.01h-.003zM303.294 13.972l-.002.009.005-.007-.003-.002zM303.098 14.124l-.039.005c-.015.034-.05.052-.078.071v.003l.014.006a.133.133 0 0 0 .061-.025v-.014c.018-.003.029-.012.042-.02v-.026zM301.585 14.23c.006.004.001.004.007 0h-.007zM301.576 14.312l-.003.006.006.003.003-.003-.006-.006zM302.276 14.506c.003.014.002.018.014.023v-.002c-.005-.012 0-.015-.014-.021zM301.672 14.575c.005.009 0 0 .009.006l.002-.003v-.003h-.011zM301.624 14.64c-.006-.006-.005-.006-.018-.007l.007.009h.012l-.001-.003zM301.626 14.691v.01h.008a.1.1 0 0 0-.008-.01zM301.654 14.73a.051.051 0 0 0-.003.006h.006a.051.051 0 0 0-.003-.006zM301.903 15.145l-.002.003.006.006a.03.03 0 0 1 .008-.003l-.012-.006zM301.953 15.17l-.009-.003-.016.011c.017.002.024.007.03-.008h-.005zM302.02 15.17a.156.156 0 0 1-.015-.003l-.009.003.006.003a.07.07 0 0 1 .008.008l.013-.005-.003-.006zM302.044 15.214v-.003c-.023-.002-.033-.001-.048-.01-.003-.02 0-.026-.019-.031.004.02.01.043.008.056l.009.002a.134.134 0 0 1 .008-.02c.001.002.003.003.005.003.006.014.013.025.025.03l-.014-.018v-.003l.026-.006zM302 15.254l.003.006.002-.006H302zM302.172 15.311c-.001.011-.003.005.009.01l-.009-.01zM302.251 15.314c.007.01.021.009.033.011l.003-.005-.036-.006zM302.15 15.32c.006.014.014.018.031.021a.072.072 0 0 0-.031-.021z" fill="#fff"/>
        <path d="M303.343 6a5.009 5.009 0 0 0-4.61 3.032c.703-1.246 2.191-2.74 4.607-2.738 2.183.002 3.815 1.307 4.615 2.74A5.009 5.009 0 0 0 303.343 6zM308.12 12.49c-.649 1.974-2.474 3.51-4.787 3.51-2.454 0-4.102-1.515-4.765-3.467.69 1.818 2.564 3.122 4.768 3.122 2.222 0 4.108-1.324 4.784-3.164z" fill="#fff"/>
        <path fill-rule="evenodd" clip-rule="evenodd" d="M341.992 6.857c-.011-.043-.022-.06-.043-.065l-.771-.208-.107-.447c-.006-.022-.011-.039-.032-.044l-.793-.218-.096-.426c-.006-.033-.022-.05-.043-.055l-2.059-.39a.275.275 0 0 0-.102 0l-2.059.39c-.021.006-.038.022-.043.055l-.096.426-.793.218c-.022.005-.027.022-.032.044l-.107.447-.772.208c-.021.005-.032.022-.042.065a5.749 5.749 0 0 0-.097 1.06c0 3.144 1.607 5.874 4.006 7.501l.004.002c.031.021.061.042.082.042.021 0 .051-.02.082-.042l.004-.002c2.399-1.627 4.005-4.357 4.005-7.502 0-.36-.032-.72-.096-1.059zm-4.295 7.114c0 .022-.021.033-.043.011-.589-.687-.985-1.528-1.253-2.445l-.406.262c-.107.076-.193.044-.257-.076-.546-.983-.9-2.599-.932-3.734 0-.055.011-.087.054-.142.139-.175.31-.35.471-.502.032-.033.064-.011.064.043 0 1.398.235 2.697.61 3.549.033.065.064.065.107.032l.118-.076c-.225-1.015-.353-2.37-.321-3.93 0-.055.011-.077.043-.098.117-.077.332-.197.514-.273.053-.022.064-.011.064.032-.032 2.271.15 3.843.546 5.099.011.032.043.021.043-.011-.021-.459-.021-.863-.021-1.354l-.022-3.92c0-.043.011-.065.054-.076a4.21 4.21 0 0 1 .535-.098c.022 0 .032.011.032.033v7.674zm2.356-6.146c0-.436-.493-.797-1.146-.84v2.281c.825-.491 1.146-.982 1.146-1.44zm-.086 1.638c-.224 0-.428.087-1.06.546v2.467c1.093-1.245 1.403-2.096 1.403-2.533 0-.306-.139-.48-.343-.48zm-1.627 4.52c-.022.021-.043.01-.043-.012V6.297c0-.022.011-.033.032-.033 1.435.098 2.356.71 2.356 1.594 0 .371-.139.731-.375.993.471.131.653.492.653.972 0 .851-.61 2.26-2.623 4.16zm4.66 3.87a.141.141 0 0 1-.139.14.14.14 0 0 1-.139-.14c0-.077.063-.143.139-.143.075 0 .139.066.139.142zm-.701.143c-.197 0-.342-.11-.414-.347l.195-.12c.041.148.108.236.226.236.091 0 .153-.074.153-.158 0-.093-.058-.167-.145-.235l-.172-.13a.455.455 0 0 1-.197-.377c0-.22.164-.378.363-.378.176 0 .305.09.373.308l-.201.123c-.034-.123-.085-.2-.183-.2-.074 0-.12.06-.12.13 0 .08.046.152.139.222l.155.119c.15.111.22.236.22.399a.397.397 0 0 1-.392.408zm-1.135-.755c0 .355.084.529.219.529s.22-.174.22-.529c0-.355-.085-.53-.22-.53s-.219.175-.219.53zm.675 0c0 .51-.172.759-.456.759-.284 0-.456-.25-.456-.759 0-.51.174-.76.456-.76.282 0 .456.25.456.76zm-1.48.002c.157-.057.249-.148.249-.285 0-.131-.096-.22-.284-.228v.526l.035-.013zm.535.738h-.259l-.201-.518h-.001c-.027.011-.053.021-.082.03l-.027.008v.48h-.235V16.5h.221c.31 0 .53.17.53.457a.465.465 0 0 1-.201.395l.255.628zm-1.151-.484c0-.133-.122-.194-.273-.156l-.071.017v.399c.201 0 .344-.108.344-.26zm-.306-.368c.138-.03.215-.114.215-.218 0-.11-.095-.18-.253-.183v.41l.038-.009zm.308.032c.145.05.231.173.231.334 0 .28-.239.486-.606.486h-.203V16.5h.199c.313 0 .514.153.514.391a.36.36 0 0 1-.135.269zm-1.525.082c.157-.057.248-.148.248-.285 0-.131-.095-.22-.284-.228v.526l.036-.013zm.535.738h-.26l-.201-.518c-.027.01-.054.021-.083.03l-.027.008v.48h-.234V16.5h.22c.311 0 .531.17.531.457a.465.465 0 0 1-.201.395l.255.628zm-.91 0h-.691V16.5h.691l-.046.229h-.411v.37h.342v.234h-.342v.419h.457v.228zm-1.456 0h-.228V16.5h.23l.378.92v-.92h.228v1.48h-.23l-.378-.92v.92zm-.833-.738c.158-.057.249-.148.249-.285 0-.131-.096-.22-.284-.228v.526l.035-.013zm.535.738h-.259l-.201-.518h-.001c-.027.01-.053.021-.082.03l-.027.008v.48h-.234V16.5h.219c.311 0 .531.17.531.457a.465.465 0 0 1-.201.395l.255.628zm-1.335-1.137-.118.632h.236l-.118-.632zm-.214 1.137h-.232l.292-1.48h.316l.292 1.48h-.241l-.051-.277h-.324l-.052.277zm-1.009 0h-.237L333 16.5h.243l.182.962.178-.961h.22l.178.961.185-.961h.234l-.299 1.479h-.236l-.176-.94-.176.94z" fill="#fff"/>
    </g>
    <defs>
        <clipPath id="a">
            <path fill="#fff" transform="translate(148 9)" d="M0 0h19v5H0z"/>
        </clipPath>
    </defs>
</svg>
